<mxfile host="app.diagrams.net" modified="2024-01-15T13:42:43.863Z" agent="Mozilla/5.0 (X11; Linux x86_64; rv:121.0) Gecko/20100101 Firefox/121.0" etag="wcxQnX9JnLAvYa0E1YDT" version="22.1.18" type="device">
  <diagram name="Страница — 1" id="g1viPprg68VL1nujRdKg">
    <mxGraphModel dx="3943" dy="1427" grid="0" gridSize="10" guides="1" tooltips="1" connect="1" arrows="1" fold="1" page="0" pageScale="1" pageWidth="827" pageHeight="1169" math="0" shadow="0">
      <root>
        <mxCell id="0" />
        <mxCell id="1" parent="0" />
        <mxCell id="KAlw1xMLLrrgvb6lXqrv-10" value="1" style="rounded=0;orthogonalLoop=1;jettySize=auto;html=1;exitX=1;exitY=1;exitDx=0;exitDy=0;entryX=0.5;entryY=0;entryDx=0;entryDy=0;fontSize=30;" edge="1" parent="1" source="KAlw1xMLLrrgvb6lXqrv-2" target="KAlw1xMLLrrgvb6lXqrv-243">
          <mxGeometry relative="1" as="geometry">
            <mxPoint x="811.7157287525206" y="131.71572875252048" as="targetPoint" />
          </mxGeometry>
        </mxCell>
        <mxCell id="KAlw1xMLLrrgvb6lXqrv-2" value="" style="ellipse;whiteSpace=wrap;html=1;" vertex="1" parent="1">
          <mxGeometry x="800" width="80" height="80" as="geometry" />
        </mxCell>
        <mxCell id="KAlw1xMLLrrgvb6lXqrv-3" value="0" style="ellipse;whiteSpace=wrap;html=1;fontSize=30;fillColor=#ffe6cc;strokeColor=#d79b00;" vertex="1" parent="1">
          <mxGeometry y="120" width="80" height="80" as="geometry" />
        </mxCell>
        <mxCell id="KAlw1xMLLrrgvb6lXqrv-9" value="0" style="endArrow=classic;html=1;rounded=0;exitX=0;exitY=1;exitDx=0;exitDy=0;entryX=1;entryY=0;entryDx=0;entryDy=0;fontSize=30;" edge="1" parent="1" source="KAlw1xMLLrrgvb6lXqrv-2" target="KAlw1xMLLrrgvb6lXqrv-3">
          <mxGeometry width="50" height="50" relative="1" as="geometry">
            <mxPoint x="470" y="270" as="sourcePoint" />
            <mxPoint x="270" y="90" as="targetPoint" />
            <Array as="points" />
          </mxGeometry>
        </mxCell>
        <mxCell id="KAlw1xMLLrrgvb6lXqrv-90" value="1" style="rounded=0;orthogonalLoop=1;jettySize=auto;html=1;exitX=1;exitY=1;exitDx=0;exitDy=0;entryX=0.5;entryY=0;entryDx=0;entryDy=0;fontSize=30;dashed=1;" edge="1" parent="1" target="KAlw1xMLLrrgvb6lXqrv-180" source="KAlw1xMLLrrgvb6lXqrv-3">
          <mxGeometry relative="1" as="geometry">
            <mxPoint x="68.28427124746236" y="200.00427124746213" as="sourcePoint" />
            <mxPoint x="220" y="243.72000000000003" as="targetPoint" />
          </mxGeometry>
        </mxCell>
        <mxCell id="KAlw1xMLLrrgvb6lXqrv-91" value="0" style="endArrow=classic;html=1;rounded=0;exitX=0;exitY=1;exitDx=0;exitDy=0;entryX=0.5;entryY=0;entryDx=0;entryDy=0;fontSize=30;dashed=1;" edge="1" parent="1" target="KAlw1xMLLrrgvb6lXqrv-92" source="KAlw1xMLLrrgvb6lXqrv-3">
          <mxGeometry width="50" height="50" relative="1" as="geometry">
            <mxPoint x="11.715728752538325" y="200.0042712474618" as="sourcePoint" />
            <mxPoint x="-49" y="243.72" as="targetPoint" />
            <Array as="points" />
          </mxGeometry>
        </mxCell>
        <mxCell id="KAlw1xMLLrrgvb6lXqrv-92" value="" style="ellipse;whiteSpace=wrap;html=1;aspect=fixed;fontSize=30;dashed=1;" vertex="1" parent="1">
          <mxGeometry x="-380" y="240" width="40" height="40" as="geometry" />
        </mxCell>
        <mxCell id="KAlw1xMLLrrgvb6lXqrv-94" value="1" style="rounded=0;orthogonalLoop=1;jettySize=auto;html=1;exitX=1;exitY=1;exitDx=0;exitDy=0;fontSize=30;entryX=0.5;entryY=0;entryDx=0;entryDy=0;dashed=1;" edge="1" parent="1" target="KAlw1xMLLrrgvb6lXqrv-100" source="KAlw1xMLLrrgvb6lXqrv-92">
          <mxGeometry relative="1" as="geometry">
            <mxPoint x="-169" y="274" as="sourcePoint" />
            <mxPoint x="-143" y="320" as="targetPoint" />
          </mxGeometry>
        </mxCell>
        <mxCell id="KAlw1xMLLrrgvb6lXqrv-95" value="0" style="endArrow=classic;html=1;rounded=0;exitX=0;exitY=1;exitDx=0;exitDy=0;fontSize=30;entryX=0.5;entryY=0;entryDx=0;entryDy=0;dashed=1;" edge="1" parent="1" target="KAlw1xMLLrrgvb6lXqrv-153" source="KAlw1xMLLrrgvb6lXqrv-92">
          <mxGeometry width="50" height="50" relative="1" as="geometry">
            <mxPoint x="-197" y="274" as="sourcePoint" />
            <mxPoint x="-540" y="320" as="targetPoint" />
            <Array as="points" />
          </mxGeometry>
        </mxCell>
        <mxCell id="KAlw1xMLLrrgvb6lXqrv-97" value="0" style="rounded=0;orthogonalLoop=1;jettySize=auto;html=1;exitX=0;exitY=1;exitDx=0;exitDy=0;fontSize=30;entryX=0.5;entryY=0;entryDx=0;entryDy=0;dashed=1;" edge="1" parent="1" source="KAlw1xMLLrrgvb6lXqrv-100" target="KAlw1xMLLrrgvb6lXqrv-139">
          <mxGeometry relative="1" as="geometry">
            <mxPoint x="-230" y="400" as="targetPoint" />
          </mxGeometry>
        </mxCell>
        <mxCell id="KAlw1xMLLrrgvb6lXqrv-98" value="1" style="rounded=0;orthogonalLoop=1;jettySize=auto;html=1;exitX=1;exitY=1;exitDx=0;exitDy=0;entryX=0.5;entryY=0;entryDx=0;entryDy=0;fontSize=30;dashed=1;" edge="1" parent="1" source="KAlw1xMLLrrgvb6lXqrv-100" target="KAlw1xMLLrrgvb6lXqrv-105">
          <mxGeometry relative="1" as="geometry" />
        </mxCell>
        <mxCell id="KAlw1xMLLrrgvb6lXqrv-100" value="" style="ellipse;whiteSpace=wrap;html=1;aspect=fixed;fontSize=30;dashed=1;" vertex="1" parent="1">
          <mxGeometry x="-180" y="320" width="40" height="40" as="geometry" />
        </mxCell>
        <mxCell id="KAlw1xMLLrrgvb6lXqrv-135" value="0" style="rounded=0;orthogonalLoop=1;jettySize=auto;html=1;exitX=0;exitY=1;exitDx=0;exitDy=0;entryX=0.5;entryY=0;entryDx=0;entryDy=0;fontSize=30;dashed=1;" edge="1" parent="1" source="KAlw1xMLLrrgvb6lXqrv-105" target="KAlw1xMLLrrgvb6lXqrv-132">
          <mxGeometry relative="1" as="geometry" />
        </mxCell>
        <mxCell id="KAlw1xMLLrrgvb6lXqrv-136" value="1" style="rounded=0;orthogonalLoop=1;jettySize=auto;html=1;exitX=1;exitY=1;exitDx=0;exitDy=0;entryX=0.5;entryY=0;entryDx=0;entryDy=0;fontSize=30;dashed=1;" edge="1" parent="1" source="KAlw1xMLLrrgvb6lXqrv-105" target="KAlw1xMLLrrgvb6lXqrv-122">
          <mxGeometry relative="1" as="geometry" />
        </mxCell>
        <mxCell id="KAlw1xMLLrrgvb6lXqrv-105" value="" style="ellipse;whiteSpace=wrap;html=1;aspect=fixed;fontSize=30;dashed=1;" vertex="1" parent="1">
          <mxGeometry x="-83" y="400" width="40" height="40" as="geometry" />
        </mxCell>
        <mxCell id="KAlw1xMLLrrgvb6lXqrv-128" value="0" style="rounded=0;orthogonalLoop=1;jettySize=auto;html=1;exitX=0;exitY=1;exitDx=0;exitDy=0;entryX=0.5;entryY=0;entryDx=0;entryDy=0;fontSize=25;dashed=1;" edge="1" parent="1" source="KAlw1xMLLrrgvb6lXqrv-122" target="KAlw1xMLLrrgvb6lXqrv-126">
          <mxGeometry relative="1" as="geometry" />
        </mxCell>
        <mxCell id="KAlw1xMLLrrgvb6lXqrv-129" value="1" style="rounded=0;orthogonalLoop=1;jettySize=auto;html=1;exitX=1;exitY=1;exitDx=0;exitDy=0;entryX=0.5;entryY=0;entryDx=0;entryDy=0;fontSize=25;dashed=1;" edge="1" parent="1" source="KAlw1xMLLrrgvb6lXqrv-122" target="KAlw1xMLLrrgvb6lXqrv-127">
          <mxGeometry relative="1" as="geometry" />
        </mxCell>
        <mxCell id="KAlw1xMLLrrgvb6lXqrv-122" value="" style="ellipse;whiteSpace=wrap;html=1;aspect=fixed;fontSize=30;dashed=1;" vertex="1" parent="1">
          <mxGeometry x="-30" y="480" width="40" height="40" as="geometry" />
        </mxCell>
        <mxCell id="KAlw1xMLLrrgvb6lXqrv-126" value="" style="ellipse;whiteSpace=wrap;html=1;aspect=fixed;fontSize=30;dashed=1;" vertex="1" parent="1">
          <mxGeometry x="-50" y="570" width="30" height="30" as="geometry" />
        </mxCell>
        <mxCell id="KAlw1xMLLrrgvb6lXqrv-127" value="" style="ellipse;whiteSpace=wrap;html=1;aspect=fixed;fontSize=30;dashed=1;" vertex="1" parent="1">
          <mxGeometry y="570" width="30" height="30" as="geometry" />
        </mxCell>
        <mxCell id="KAlw1xMLLrrgvb6lXqrv-130" value="0" style="rounded=0;orthogonalLoop=1;jettySize=auto;html=1;exitX=0;exitY=1;exitDx=0;exitDy=0;entryX=0.5;entryY=0;entryDx=0;entryDy=0;fontSize=25;dashed=1;" edge="1" parent="1" source="KAlw1xMLLrrgvb6lXqrv-132" target="KAlw1xMLLrrgvb6lXqrv-133">
          <mxGeometry relative="1" as="geometry" />
        </mxCell>
        <mxCell id="KAlw1xMLLrrgvb6lXqrv-131" value="1" style="rounded=0;orthogonalLoop=1;jettySize=auto;html=1;exitX=1;exitY=1;exitDx=0;exitDy=0;entryX=0.5;entryY=0;entryDx=0;entryDy=0;fontSize=25;dashed=1;" edge="1" parent="1" source="KAlw1xMLLrrgvb6lXqrv-132" target="KAlw1xMLLrrgvb6lXqrv-134">
          <mxGeometry relative="1" as="geometry" />
        </mxCell>
        <mxCell id="KAlw1xMLLrrgvb6lXqrv-132" value="" style="ellipse;whiteSpace=wrap;html=1;aspect=fixed;fontSize=30;dashed=1;" vertex="1" parent="1">
          <mxGeometry x="-133" y="480" width="40" height="40" as="geometry" />
        </mxCell>
        <mxCell id="KAlw1xMLLrrgvb6lXqrv-133" value="" style="ellipse;whiteSpace=wrap;html=1;aspect=fixed;fontSize=30;dashed=1;" vertex="1" parent="1">
          <mxGeometry x="-153" y="570" width="30" height="30" as="geometry" />
        </mxCell>
        <mxCell id="KAlw1xMLLrrgvb6lXqrv-134" value="" style="ellipse;whiteSpace=wrap;html=1;aspect=fixed;fontSize=30;dashed=1;" vertex="1" parent="1">
          <mxGeometry x="-103" y="570" width="30" height="30" as="geometry" />
        </mxCell>
        <mxCell id="KAlw1xMLLrrgvb6lXqrv-137" value="0" style="rounded=0;orthogonalLoop=1;jettySize=auto;html=1;exitX=0;exitY=1;exitDx=0;exitDy=0;entryX=0.5;entryY=0;entryDx=0;entryDy=0;fontSize=30;dashed=1;" edge="1" parent="1" source="KAlw1xMLLrrgvb6lXqrv-139" target="KAlw1xMLLrrgvb6lXqrv-147">
          <mxGeometry relative="1" as="geometry" />
        </mxCell>
        <mxCell id="KAlw1xMLLrrgvb6lXqrv-138" value="1" style="rounded=0;orthogonalLoop=1;jettySize=auto;html=1;exitX=1;exitY=1;exitDx=0;exitDy=0;entryX=0.5;entryY=0;entryDx=0;entryDy=0;fontSize=30;dashed=1;" edge="1" parent="1" source="KAlw1xMLLrrgvb6lXqrv-139" target="KAlw1xMLLrrgvb6lXqrv-142">
          <mxGeometry relative="1" as="geometry" />
        </mxCell>
        <mxCell id="KAlw1xMLLrrgvb6lXqrv-139" value="" style="ellipse;whiteSpace=wrap;html=1;aspect=fixed;fontSize=30;dashed=1;" vertex="1" parent="1">
          <mxGeometry x="-280" y="401.5" width="40" height="40" as="geometry" />
        </mxCell>
        <mxCell id="KAlw1xMLLrrgvb6lXqrv-140" value="0" style="rounded=0;orthogonalLoop=1;jettySize=auto;html=1;exitX=0;exitY=1;exitDx=0;exitDy=0;entryX=0.5;entryY=0;entryDx=0;entryDy=0;fontSize=25;dashed=1;" edge="1" parent="1" source="KAlw1xMLLrrgvb6lXqrv-142" target="KAlw1xMLLrrgvb6lXqrv-143">
          <mxGeometry relative="1" as="geometry" />
        </mxCell>
        <mxCell id="KAlw1xMLLrrgvb6lXqrv-141" value="1" style="rounded=0;orthogonalLoop=1;jettySize=auto;html=1;exitX=1;exitY=1;exitDx=0;exitDy=0;entryX=0.5;entryY=0;entryDx=0;entryDy=0;fontSize=25;dashed=1;" edge="1" parent="1" source="KAlw1xMLLrrgvb6lXqrv-142" target="KAlw1xMLLrrgvb6lXqrv-144">
          <mxGeometry relative="1" as="geometry" />
        </mxCell>
        <mxCell id="KAlw1xMLLrrgvb6lXqrv-142" value="" style="ellipse;whiteSpace=wrap;html=1;aspect=fixed;fontSize=30;dashed=1;" vertex="1" parent="1">
          <mxGeometry x="-227" y="481.5" width="40" height="40" as="geometry" />
        </mxCell>
        <mxCell id="KAlw1xMLLrrgvb6lXqrv-143" value="" style="ellipse;whiteSpace=wrap;html=1;aspect=fixed;fontSize=30;dashed=1;" vertex="1" parent="1">
          <mxGeometry x="-247" y="570" width="30" height="30" as="geometry" />
        </mxCell>
        <mxCell id="KAlw1xMLLrrgvb6lXqrv-144" value="" style="ellipse;whiteSpace=wrap;html=1;aspect=fixed;fontSize=30;dashed=1;" vertex="1" parent="1">
          <mxGeometry x="-197" y="570" width="30" height="30" as="geometry" />
        </mxCell>
        <mxCell id="KAlw1xMLLrrgvb6lXqrv-145" value="0" style="rounded=0;orthogonalLoop=1;jettySize=auto;html=1;exitX=0;exitY=1;exitDx=0;exitDy=0;entryX=0.5;entryY=0;entryDx=0;entryDy=0;fontSize=25;dashed=1;" edge="1" parent="1" source="KAlw1xMLLrrgvb6lXqrv-147" target="KAlw1xMLLrrgvb6lXqrv-148">
          <mxGeometry relative="1" as="geometry" />
        </mxCell>
        <mxCell id="KAlw1xMLLrrgvb6lXqrv-146" value="1" style="rounded=0;orthogonalLoop=1;jettySize=auto;html=1;exitX=1;exitY=1;exitDx=0;exitDy=0;entryX=0.5;entryY=0;entryDx=0;entryDy=0;fontSize=25;dashed=1;" edge="1" parent="1" source="KAlw1xMLLrrgvb6lXqrv-147" target="KAlw1xMLLrrgvb6lXqrv-149">
          <mxGeometry relative="1" as="geometry" />
        </mxCell>
        <mxCell id="KAlw1xMLLrrgvb6lXqrv-147" value="" style="ellipse;whiteSpace=wrap;html=1;aspect=fixed;fontSize=30;dashed=1;" vertex="1" parent="1">
          <mxGeometry x="-330" y="481.5" width="40" height="40" as="geometry" />
        </mxCell>
        <mxCell id="KAlw1xMLLrrgvb6lXqrv-148" value="" style="ellipse;whiteSpace=wrap;html=1;aspect=fixed;fontSize=30;dashed=1;" vertex="1" parent="1">
          <mxGeometry x="-350" y="570" width="30" height="30" as="geometry" />
        </mxCell>
        <mxCell id="KAlw1xMLLrrgvb6lXqrv-149" value="" style="ellipse;whiteSpace=wrap;html=1;aspect=fixed;fontSize=30;dashed=1;" vertex="1" parent="1">
          <mxGeometry x="-300" y="570" width="30" height="30" as="geometry" />
        </mxCell>
        <mxCell id="KAlw1xMLLrrgvb6lXqrv-150" value="0" style="rounded=0;orthogonalLoop=1;jettySize=auto;html=1;exitX=0;exitY=1;exitDx=0;exitDy=0;fontSize=30;entryX=0.5;entryY=0;entryDx=0;entryDy=0;dashed=1;" edge="1" parent="1" source="KAlw1xMLLrrgvb6lXqrv-153" target="KAlw1xMLLrrgvb6lXqrv-169">
          <mxGeometry relative="1" as="geometry">
            <mxPoint x="-627" y="400" as="targetPoint" />
          </mxGeometry>
        </mxCell>
        <mxCell id="KAlw1xMLLrrgvb6lXqrv-151" value="1" style="rounded=0;orthogonalLoop=1;jettySize=auto;html=1;exitX=1;exitY=1;exitDx=0;exitDy=0;entryX=0.5;entryY=0;entryDx=0;entryDy=0;fontSize=30;dashed=1;" edge="1" parent="1" source="KAlw1xMLLrrgvb6lXqrv-153" target="KAlw1xMLLrrgvb6lXqrv-156">
          <mxGeometry relative="1" as="geometry" />
        </mxCell>
        <mxCell id="KAlw1xMLLrrgvb6lXqrv-153" value="" style="ellipse;whiteSpace=wrap;html=1;aspect=fixed;fontSize=30;dashed=1;" vertex="1" parent="1">
          <mxGeometry x="-577" y="320" width="40" height="40" as="geometry" />
        </mxCell>
        <mxCell id="KAlw1xMLLrrgvb6lXqrv-154" value="0" style="rounded=0;orthogonalLoop=1;jettySize=auto;html=1;exitX=0;exitY=1;exitDx=0;exitDy=0;entryX=0.5;entryY=0;entryDx=0;entryDy=0;fontSize=30;dashed=1;" edge="1" parent="1" source="KAlw1xMLLrrgvb6lXqrv-156" target="KAlw1xMLLrrgvb6lXqrv-164">
          <mxGeometry relative="1" as="geometry" />
        </mxCell>
        <mxCell id="KAlw1xMLLrrgvb6lXqrv-155" value="1" style="rounded=0;orthogonalLoop=1;jettySize=auto;html=1;exitX=1;exitY=1;exitDx=0;exitDy=0;entryX=0.5;entryY=0;entryDx=0;entryDy=0;fontSize=30;dashed=1;" edge="1" parent="1" source="KAlw1xMLLrrgvb6lXqrv-156" target="KAlw1xMLLrrgvb6lXqrv-159">
          <mxGeometry relative="1" as="geometry" />
        </mxCell>
        <mxCell id="KAlw1xMLLrrgvb6lXqrv-156" value="" style="ellipse;whiteSpace=wrap;html=1;aspect=fixed;fontSize=30;dashed=1;" vertex="1" parent="1">
          <mxGeometry x="-480" y="400" width="40" height="40" as="geometry" />
        </mxCell>
        <mxCell id="KAlw1xMLLrrgvb6lXqrv-157" value="0" style="rounded=0;orthogonalLoop=1;jettySize=auto;html=1;exitX=0;exitY=1;exitDx=0;exitDy=0;entryX=0.5;entryY=0;entryDx=0;entryDy=0;fontSize=25;dashed=1;" edge="1" parent="1" source="KAlw1xMLLrrgvb6lXqrv-159" target="KAlw1xMLLrrgvb6lXqrv-160">
          <mxGeometry relative="1" as="geometry" />
        </mxCell>
        <mxCell id="KAlw1xMLLrrgvb6lXqrv-158" value="1" style="rounded=0;orthogonalLoop=1;jettySize=auto;html=1;exitX=1;exitY=1;exitDx=0;exitDy=0;entryX=0.5;entryY=0;entryDx=0;entryDy=0;fontSize=25;dashed=1;" edge="1" parent="1" source="KAlw1xMLLrrgvb6lXqrv-159" target="KAlw1xMLLrrgvb6lXqrv-161">
          <mxGeometry relative="1" as="geometry" />
        </mxCell>
        <mxCell id="KAlw1xMLLrrgvb6lXqrv-159" value="" style="ellipse;whiteSpace=wrap;html=1;aspect=fixed;fontSize=30;dashed=1;" vertex="1" parent="1">
          <mxGeometry x="-427" y="480" width="40" height="40" as="geometry" />
        </mxCell>
        <mxCell id="KAlw1xMLLrrgvb6lXqrv-160" value="" style="ellipse;whiteSpace=wrap;html=1;aspect=fixed;fontSize=30;dashed=1;" vertex="1" parent="1">
          <mxGeometry x="-447" y="570" width="30" height="30" as="geometry" />
        </mxCell>
        <mxCell id="KAlw1xMLLrrgvb6lXqrv-161" value="" style="ellipse;whiteSpace=wrap;html=1;aspect=fixed;fontSize=30;dashed=1;" vertex="1" parent="1">
          <mxGeometry x="-397" y="570" width="30" height="30" as="geometry" />
        </mxCell>
        <mxCell id="KAlw1xMLLrrgvb6lXqrv-162" value="0" style="rounded=0;orthogonalLoop=1;jettySize=auto;html=1;exitX=0;exitY=1;exitDx=0;exitDy=0;entryX=0.5;entryY=0;entryDx=0;entryDy=0;fontSize=25;dashed=1;" edge="1" parent="1" source="KAlw1xMLLrrgvb6lXqrv-164" target="KAlw1xMLLrrgvb6lXqrv-165">
          <mxGeometry relative="1" as="geometry" />
        </mxCell>
        <mxCell id="KAlw1xMLLrrgvb6lXqrv-163" value="1" style="rounded=0;orthogonalLoop=1;jettySize=auto;html=1;exitX=1;exitY=1;exitDx=0;exitDy=0;entryX=0.5;entryY=0;entryDx=0;entryDy=0;fontSize=25;dashed=1;" edge="1" parent="1" source="KAlw1xMLLrrgvb6lXqrv-164" target="KAlw1xMLLrrgvb6lXqrv-166">
          <mxGeometry relative="1" as="geometry" />
        </mxCell>
        <mxCell id="KAlw1xMLLrrgvb6lXqrv-164" value="" style="ellipse;whiteSpace=wrap;html=1;aspect=fixed;fontSize=30;dashed=1;" vertex="1" parent="1">
          <mxGeometry x="-530" y="480" width="40" height="40" as="geometry" />
        </mxCell>
        <mxCell id="KAlw1xMLLrrgvb6lXqrv-165" value="" style="ellipse;whiteSpace=wrap;html=1;aspect=fixed;fontSize=30;dashed=1;" vertex="1" parent="1">
          <mxGeometry x="-550" y="570" width="30" height="30" as="geometry" />
        </mxCell>
        <mxCell id="KAlw1xMLLrrgvb6lXqrv-166" value="" style="ellipse;whiteSpace=wrap;html=1;aspect=fixed;fontSize=30;dashed=1;" vertex="1" parent="1">
          <mxGeometry x="-500" y="570" width="30" height="30" as="geometry" />
        </mxCell>
        <mxCell id="KAlw1xMLLrrgvb6lXqrv-167" value="0" style="rounded=0;orthogonalLoop=1;jettySize=auto;html=1;exitX=0;exitY=1;exitDx=0;exitDy=0;entryX=0.5;entryY=0;entryDx=0;entryDy=0;fontSize=30;dashed=1;" edge="1" parent="1" source="KAlw1xMLLrrgvb6lXqrv-169" target="KAlw1xMLLrrgvb6lXqrv-177">
          <mxGeometry relative="1" as="geometry" />
        </mxCell>
        <mxCell id="KAlw1xMLLrrgvb6lXqrv-168" value="1" style="rounded=0;orthogonalLoop=1;jettySize=auto;html=1;exitX=1;exitY=1;exitDx=0;exitDy=0;entryX=0.5;entryY=0;entryDx=0;entryDy=0;fontSize=30;dashed=1;" edge="1" parent="1" source="KAlw1xMLLrrgvb6lXqrv-169" target="KAlw1xMLLrrgvb6lXqrv-172">
          <mxGeometry relative="1" as="geometry" />
        </mxCell>
        <mxCell id="KAlw1xMLLrrgvb6lXqrv-169" value="" style="ellipse;whiteSpace=wrap;html=1;aspect=fixed;fontSize=30;dashed=1;" vertex="1" parent="1">
          <mxGeometry x="-677" y="401.5" width="40" height="40" as="geometry" />
        </mxCell>
        <mxCell id="KAlw1xMLLrrgvb6lXqrv-170" value="0" style="rounded=0;orthogonalLoop=1;jettySize=auto;html=1;exitX=0;exitY=1;exitDx=0;exitDy=0;entryX=0.5;entryY=0;entryDx=0;entryDy=0;fontSize=25;dashed=1;" edge="1" parent="1" source="KAlw1xMLLrrgvb6lXqrv-172" target="KAlw1xMLLrrgvb6lXqrv-173">
          <mxGeometry relative="1" as="geometry" />
        </mxCell>
        <mxCell id="KAlw1xMLLrrgvb6lXqrv-171" value="1" style="rounded=0;orthogonalLoop=1;jettySize=auto;html=1;exitX=1;exitY=1;exitDx=0;exitDy=0;entryX=0.5;entryY=0;entryDx=0;entryDy=0;fontSize=25;dashed=1;" edge="1" parent="1" source="KAlw1xMLLrrgvb6lXqrv-172" target="KAlw1xMLLrrgvb6lXqrv-174">
          <mxGeometry relative="1" as="geometry" />
        </mxCell>
        <mxCell id="KAlw1xMLLrrgvb6lXqrv-172" value="" style="ellipse;whiteSpace=wrap;html=1;aspect=fixed;fontSize=30;dashed=1;" vertex="1" parent="1">
          <mxGeometry x="-624" y="481.5" width="40" height="40" as="geometry" />
        </mxCell>
        <mxCell id="KAlw1xMLLrrgvb6lXqrv-173" value="" style="ellipse;whiteSpace=wrap;html=1;aspect=fixed;fontSize=30;dashed=1;" vertex="1" parent="1">
          <mxGeometry x="-644" y="570" width="30" height="30" as="geometry" />
        </mxCell>
        <mxCell id="KAlw1xMLLrrgvb6lXqrv-174" value="" style="ellipse;whiteSpace=wrap;html=1;aspect=fixed;fontSize=30;dashed=1;" vertex="1" parent="1">
          <mxGeometry x="-594" y="570" width="30" height="30" as="geometry" />
        </mxCell>
        <mxCell id="KAlw1xMLLrrgvb6lXqrv-175" value="0" style="rounded=0;orthogonalLoop=1;jettySize=auto;html=1;exitX=0;exitY=1;exitDx=0;exitDy=0;entryX=0.5;entryY=0;entryDx=0;entryDy=0;fontSize=25;dashed=1;" edge="1" parent="1" source="KAlw1xMLLrrgvb6lXqrv-177" target="KAlw1xMLLrrgvb6lXqrv-178">
          <mxGeometry relative="1" as="geometry" />
        </mxCell>
        <mxCell id="KAlw1xMLLrrgvb6lXqrv-176" value="1" style="rounded=0;orthogonalLoop=1;jettySize=auto;html=1;exitX=1;exitY=1;exitDx=0;exitDy=0;entryX=0.5;entryY=0;entryDx=0;entryDy=0;fontSize=25;dashed=1;" edge="1" parent="1" source="KAlw1xMLLrrgvb6lXqrv-177" target="KAlw1xMLLrrgvb6lXqrv-179">
          <mxGeometry relative="1" as="geometry" />
        </mxCell>
        <mxCell id="KAlw1xMLLrrgvb6lXqrv-177" value="" style="ellipse;whiteSpace=wrap;html=1;aspect=fixed;fontSize=30;dashed=1;" vertex="1" parent="1">
          <mxGeometry x="-727" y="481.5" width="40" height="40" as="geometry" />
        </mxCell>
        <mxCell id="KAlw1xMLLrrgvb6lXqrv-178" value="" style="ellipse;whiteSpace=wrap;html=1;aspect=fixed;fontSize=30;dashed=1;" vertex="1" parent="1">
          <mxGeometry x="-747" y="570" width="30" height="30" as="geometry" />
        </mxCell>
        <mxCell id="KAlw1xMLLrrgvb6lXqrv-179" value="" style="ellipse;whiteSpace=wrap;html=1;aspect=fixed;fontSize=30;dashed=1;" vertex="1" parent="1">
          <mxGeometry x="-697" y="570" width="30" height="30" as="geometry" />
        </mxCell>
        <mxCell id="KAlw1xMLLrrgvb6lXqrv-180" value="" style="ellipse;whiteSpace=wrap;html=1;aspect=fixed;fontSize=30;dashed=1;" vertex="1" parent="1">
          <mxGeometry x="418.5" y="242.25" width="40" height="40" as="geometry" />
        </mxCell>
        <mxCell id="KAlw1xMLLrrgvb6lXqrv-181" value="1" style="rounded=0;orthogonalLoop=1;jettySize=auto;html=1;exitX=1;exitY=1;exitDx=0;exitDy=0;fontSize=30;entryX=0.5;entryY=0;entryDx=0;entryDy=0;dashed=1;" edge="1" parent="1" source="KAlw1xMLLrrgvb6lXqrv-180" target="KAlw1xMLLrrgvb6lXqrv-186">
          <mxGeometry relative="1" as="geometry">
            <mxPoint x="629.5" y="276.25" as="sourcePoint" />
            <mxPoint x="655.5" y="322.25" as="targetPoint" />
          </mxGeometry>
        </mxCell>
        <mxCell id="KAlw1xMLLrrgvb6lXqrv-182" value="0" style="endArrow=classic;html=1;rounded=0;exitX=0;exitY=1;exitDx=0;exitDy=0;fontSize=30;entryX=0.5;entryY=0;entryDx=0;entryDy=0;dashed=1;" edge="1" parent="1" source="KAlw1xMLLrrgvb6lXqrv-180" target="KAlw1xMLLrrgvb6lXqrv-216">
          <mxGeometry width="50" height="50" relative="1" as="geometry">
            <mxPoint x="601.5" y="276.25" as="sourcePoint" />
            <mxPoint x="258.5" y="322.25" as="targetPoint" />
            <Array as="points" />
          </mxGeometry>
        </mxCell>
        <mxCell id="KAlw1xMLLrrgvb6lXqrv-183" value="0" style="rounded=0;orthogonalLoop=1;jettySize=auto;html=1;exitX=0;exitY=1;exitDx=0;exitDy=0;fontSize=30;entryX=0.5;entryY=0;entryDx=0;entryDy=0;dashed=1;" edge="1" parent="1" source="KAlw1xMLLrrgvb6lXqrv-186" target="KAlw1xMLLrrgvb6lXqrv-202">
          <mxGeometry relative="1" as="geometry">
            <mxPoint x="568.5" y="402.25" as="targetPoint" />
          </mxGeometry>
        </mxCell>
        <mxCell id="KAlw1xMLLrrgvb6lXqrv-184" value="1" style="rounded=0;orthogonalLoop=1;jettySize=auto;html=1;exitX=1;exitY=1;exitDx=0;exitDy=0;entryX=0.5;entryY=0;entryDx=0;entryDy=0;fontSize=30;dashed=1;" edge="1" parent="1" source="KAlw1xMLLrrgvb6lXqrv-186" target="KAlw1xMLLrrgvb6lXqrv-189">
          <mxGeometry relative="1" as="geometry" />
        </mxCell>
        <mxCell id="KAlw1xMLLrrgvb6lXqrv-186" value="" style="ellipse;whiteSpace=wrap;html=1;aspect=fixed;fontSize=30;dashed=1;" vertex="1" parent="1">
          <mxGeometry x="618.5" y="322.25" width="40" height="40" as="geometry" />
        </mxCell>
        <mxCell id="KAlw1xMLLrrgvb6lXqrv-187" value="0" style="rounded=0;orthogonalLoop=1;jettySize=auto;html=1;exitX=0;exitY=1;exitDx=0;exitDy=0;entryX=0.5;entryY=0;entryDx=0;entryDy=0;fontSize=30;dashed=1;" edge="1" parent="1" source="KAlw1xMLLrrgvb6lXqrv-189" target="KAlw1xMLLrrgvb6lXqrv-197">
          <mxGeometry relative="1" as="geometry" />
        </mxCell>
        <mxCell id="KAlw1xMLLrrgvb6lXqrv-188" value="1" style="rounded=0;orthogonalLoop=1;jettySize=auto;html=1;exitX=1;exitY=1;exitDx=0;exitDy=0;entryX=0.5;entryY=0;entryDx=0;entryDy=0;fontSize=30;dashed=1;" edge="1" parent="1" source="KAlw1xMLLrrgvb6lXqrv-189" target="KAlw1xMLLrrgvb6lXqrv-192">
          <mxGeometry relative="1" as="geometry" />
        </mxCell>
        <mxCell id="KAlw1xMLLrrgvb6lXqrv-189" value="" style="ellipse;whiteSpace=wrap;html=1;aspect=fixed;fontSize=30;dashed=1;" vertex="1" parent="1">
          <mxGeometry x="715.5" y="402.25" width="40" height="40" as="geometry" />
        </mxCell>
        <mxCell id="KAlw1xMLLrrgvb6lXqrv-190" value="0" style="rounded=0;orthogonalLoop=1;jettySize=auto;html=1;exitX=0;exitY=1;exitDx=0;exitDy=0;entryX=0.5;entryY=0;entryDx=0;entryDy=0;fontSize=25;dashed=1;" edge="1" parent="1" source="KAlw1xMLLrrgvb6lXqrv-192" target="KAlw1xMLLrrgvb6lXqrv-193">
          <mxGeometry relative="1" as="geometry" />
        </mxCell>
        <mxCell id="KAlw1xMLLrrgvb6lXqrv-191" value="1" style="rounded=0;orthogonalLoop=1;jettySize=auto;html=1;exitX=1;exitY=1;exitDx=0;exitDy=0;entryX=0.5;entryY=0;entryDx=0;entryDy=0;fontSize=25;dashed=1;" edge="1" parent="1" source="KAlw1xMLLrrgvb6lXqrv-192" target="KAlw1xMLLrrgvb6lXqrv-194">
          <mxGeometry relative="1" as="geometry" />
        </mxCell>
        <mxCell id="KAlw1xMLLrrgvb6lXqrv-192" value="" style="ellipse;whiteSpace=wrap;html=1;aspect=fixed;fontSize=30;dashed=1;" vertex="1" parent="1">
          <mxGeometry x="768.5" y="482.25" width="40" height="40" as="geometry" />
        </mxCell>
        <mxCell id="KAlw1xMLLrrgvb6lXqrv-193" value="" style="ellipse;whiteSpace=wrap;html=1;aspect=fixed;fontSize=30;dashed=1;" vertex="1" parent="1">
          <mxGeometry x="748.5" y="570" width="30" height="30" as="geometry" />
        </mxCell>
        <mxCell id="KAlw1xMLLrrgvb6lXqrv-194" value="" style="ellipse;whiteSpace=wrap;html=1;aspect=fixed;fontSize=30;dashed=1;" vertex="1" parent="1">
          <mxGeometry x="798.5" y="570" width="30" height="30" as="geometry" />
        </mxCell>
        <mxCell id="KAlw1xMLLrrgvb6lXqrv-195" value="0" style="rounded=0;orthogonalLoop=1;jettySize=auto;html=1;exitX=0;exitY=1;exitDx=0;exitDy=0;entryX=0.5;entryY=0;entryDx=0;entryDy=0;fontSize=25;dashed=1;" edge="1" parent="1" source="KAlw1xMLLrrgvb6lXqrv-197" target="KAlw1xMLLrrgvb6lXqrv-198">
          <mxGeometry relative="1" as="geometry" />
        </mxCell>
        <mxCell id="KAlw1xMLLrrgvb6lXqrv-196" value="1" style="rounded=0;orthogonalLoop=1;jettySize=auto;html=1;exitX=1;exitY=1;exitDx=0;exitDy=0;entryX=0.5;entryY=0;entryDx=0;entryDy=0;fontSize=25;dashed=1;" edge="1" parent="1" source="KAlw1xMLLrrgvb6lXqrv-197" target="KAlw1xMLLrrgvb6lXqrv-199">
          <mxGeometry relative="1" as="geometry" />
        </mxCell>
        <mxCell id="KAlw1xMLLrrgvb6lXqrv-197" value="" style="ellipse;whiteSpace=wrap;html=1;aspect=fixed;fontSize=30;dashed=1;" vertex="1" parent="1">
          <mxGeometry x="665.5" y="482.25" width="40" height="40" as="geometry" />
        </mxCell>
        <mxCell id="KAlw1xMLLrrgvb6lXqrv-198" value="" style="ellipse;whiteSpace=wrap;html=1;aspect=fixed;fontSize=30;dashed=1;" vertex="1" parent="1">
          <mxGeometry x="645.5" y="570" width="30" height="30" as="geometry" />
        </mxCell>
        <mxCell id="KAlw1xMLLrrgvb6lXqrv-199" value="" style="ellipse;whiteSpace=wrap;html=1;aspect=fixed;fontSize=30;dashed=1;" vertex="1" parent="1">
          <mxGeometry x="695.5" y="570" width="30" height="30" as="geometry" />
        </mxCell>
        <mxCell id="KAlw1xMLLrrgvb6lXqrv-200" value="0" style="rounded=0;orthogonalLoop=1;jettySize=auto;html=1;exitX=0;exitY=1;exitDx=0;exitDy=0;entryX=0.5;entryY=0;entryDx=0;entryDy=0;fontSize=30;dashed=1;" edge="1" parent="1" source="KAlw1xMLLrrgvb6lXqrv-202" target="KAlw1xMLLrrgvb6lXqrv-210">
          <mxGeometry relative="1" as="geometry" />
        </mxCell>
        <mxCell id="KAlw1xMLLrrgvb6lXqrv-201" value="1" style="rounded=0;orthogonalLoop=1;jettySize=auto;html=1;exitX=1;exitY=1;exitDx=0;exitDy=0;entryX=0.5;entryY=0;entryDx=0;entryDy=0;fontSize=30;dashed=1;" edge="1" parent="1" source="KAlw1xMLLrrgvb6lXqrv-202" target="KAlw1xMLLrrgvb6lXqrv-205">
          <mxGeometry relative="1" as="geometry" />
        </mxCell>
        <mxCell id="KAlw1xMLLrrgvb6lXqrv-202" value="" style="ellipse;whiteSpace=wrap;html=1;aspect=fixed;fontSize=30;dashed=1;" vertex="1" parent="1">
          <mxGeometry x="518.5" y="403.75" width="40" height="40" as="geometry" />
        </mxCell>
        <mxCell id="KAlw1xMLLrrgvb6lXqrv-203" value="0" style="rounded=0;orthogonalLoop=1;jettySize=auto;html=1;exitX=0;exitY=1;exitDx=0;exitDy=0;entryX=0.5;entryY=0;entryDx=0;entryDy=0;fontSize=25;dashed=1;" edge="1" parent="1" source="KAlw1xMLLrrgvb6lXqrv-205" target="KAlw1xMLLrrgvb6lXqrv-206">
          <mxGeometry relative="1" as="geometry" />
        </mxCell>
        <mxCell id="KAlw1xMLLrrgvb6lXqrv-204" value="1" style="rounded=0;orthogonalLoop=1;jettySize=auto;html=1;exitX=1;exitY=1;exitDx=0;exitDy=0;entryX=0.5;entryY=0;entryDx=0;entryDy=0;fontSize=25;dashed=1;" edge="1" parent="1" source="KAlw1xMLLrrgvb6lXqrv-205" target="KAlw1xMLLrrgvb6lXqrv-207">
          <mxGeometry relative="1" as="geometry" />
        </mxCell>
        <mxCell id="KAlw1xMLLrrgvb6lXqrv-205" value="" style="ellipse;whiteSpace=wrap;html=1;aspect=fixed;fontSize=30;dashed=1;" vertex="1" parent="1">
          <mxGeometry x="571.5" y="483.75" width="40" height="40" as="geometry" />
        </mxCell>
        <mxCell id="KAlw1xMLLrrgvb6lXqrv-206" value="" style="ellipse;whiteSpace=wrap;html=1;aspect=fixed;fontSize=30;dashed=1;" vertex="1" parent="1">
          <mxGeometry x="551.5" y="570" width="30" height="30" as="geometry" />
        </mxCell>
        <mxCell id="KAlw1xMLLrrgvb6lXqrv-207" value="" style="ellipse;whiteSpace=wrap;html=1;aspect=fixed;fontSize=30;dashed=1;" vertex="1" parent="1">
          <mxGeometry x="601.5" y="570" width="30" height="30" as="geometry" />
        </mxCell>
        <mxCell id="KAlw1xMLLrrgvb6lXqrv-208" value="0" style="rounded=0;orthogonalLoop=1;jettySize=auto;html=1;exitX=0;exitY=1;exitDx=0;exitDy=0;entryX=0.5;entryY=0;entryDx=0;entryDy=0;fontSize=25;dashed=1;" edge="1" parent="1" source="KAlw1xMLLrrgvb6lXqrv-210" target="KAlw1xMLLrrgvb6lXqrv-211">
          <mxGeometry relative="1" as="geometry" />
        </mxCell>
        <mxCell id="KAlw1xMLLrrgvb6lXqrv-209" value="1" style="rounded=0;orthogonalLoop=1;jettySize=auto;html=1;exitX=1;exitY=1;exitDx=0;exitDy=0;entryX=0.5;entryY=0;entryDx=0;entryDy=0;fontSize=25;dashed=1;" edge="1" parent="1" source="KAlw1xMLLrrgvb6lXqrv-210" target="KAlw1xMLLrrgvb6lXqrv-212">
          <mxGeometry relative="1" as="geometry" />
        </mxCell>
        <mxCell id="KAlw1xMLLrrgvb6lXqrv-210" value="" style="ellipse;whiteSpace=wrap;html=1;aspect=fixed;fontSize=30;dashed=1;" vertex="1" parent="1">
          <mxGeometry x="468.5" y="483.75" width="40" height="40" as="geometry" />
        </mxCell>
        <mxCell id="KAlw1xMLLrrgvb6lXqrv-211" value="" style="ellipse;whiteSpace=wrap;html=1;aspect=fixed;fontSize=30;dashed=1;" vertex="1" parent="1">
          <mxGeometry x="448.5" y="570" width="30" height="30" as="geometry" />
        </mxCell>
        <mxCell id="KAlw1xMLLrrgvb6lXqrv-212" value="" style="ellipse;whiteSpace=wrap;html=1;aspect=fixed;fontSize=30;dashed=1;" vertex="1" parent="1">
          <mxGeometry x="498.5" y="570" width="30" height="30" as="geometry" />
        </mxCell>
        <mxCell id="KAlw1xMLLrrgvb6lXqrv-213" value="0" style="rounded=0;orthogonalLoop=1;jettySize=auto;html=1;exitX=0;exitY=1;exitDx=0;exitDy=0;fontSize=30;entryX=0.5;entryY=0;entryDx=0;entryDy=0;dashed=1;" edge="1" parent="1" source="KAlw1xMLLrrgvb6lXqrv-216" target="KAlw1xMLLrrgvb6lXqrv-232">
          <mxGeometry relative="1" as="geometry">
            <mxPoint x="171.5" y="402.25" as="targetPoint" />
          </mxGeometry>
        </mxCell>
        <mxCell id="KAlw1xMLLrrgvb6lXqrv-214" value="1" style="rounded=0;orthogonalLoop=1;jettySize=auto;html=1;exitX=1;exitY=1;exitDx=0;exitDy=0;entryX=0.5;entryY=0;entryDx=0;entryDy=0;fontSize=30;dashed=1;" edge="1" parent="1" source="KAlw1xMLLrrgvb6lXqrv-216" target="KAlw1xMLLrrgvb6lXqrv-219">
          <mxGeometry relative="1" as="geometry" />
        </mxCell>
        <mxCell id="KAlw1xMLLrrgvb6lXqrv-216" value="" style="ellipse;whiteSpace=wrap;html=1;aspect=fixed;fontSize=30;dashed=1;" vertex="1" parent="1">
          <mxGeometry x="221.5" y="322.25" width="40" height="40" as="geometry" />
        </mxCell>
        <mxCell id="KAlw1xMLLrrgvb6lXqrv-217" value="0" style="rounded=0;orthogonalLoop=1;jettySize=auto;html=1;exitX=0;exitY=1;exitDx=0;exitDy=0;entryX=0.5;entryY=0;entryDx=0;entryDy=0;fontSize=30;dashed=1;" edge="1" parent="1" source="KAlw1xMLLrrgvb6lXqrv-219" target="KAlw1xMLLrrgvb6lXqrv-227">
          <mxGeometry relative="1" as="geometry" />
        </mxCell>
        <mxCell id="KAlw1xMLLrrgvb6lXqrv-218" value="1" style="rounded=0;orthogonalLoop=1;jettySize=auto;html=1;exitX=1;exitY=1;exitDx=0;exitDy=0;entryX=0.5;entryY=0;entryDx=0;entryDy=0;fontSize=30;dashed=1;" edge="1" parent="1" source="KAlw1xMLLrrgvb6lXqrv-219" target="KAlw1xMLLrrgvb6lXqrv-222">
          <mxGeometry relative="1" as="geometry" />
        </mxCell>
        <mxCell id="KAlw1xMLLrrgvb6lXqrv-219" value="" style="ellipse;whiteSpace=wrap;html=1;aspect=fixed;fontSize=30;dashed=1;" vertex="1" parent="1">
          <mxGeometry x="318.5" y="402.25" width="40" height="40" as="geometry" />
        </mxCell>
        <mxCell id="KAlw1xMLLrrgvb6lXqrv-220" value="0" style="rounded=0;orthogonalLoop=1;jettySize=auto;html=1;exitX=0;exitY=1;exitDx=0;exitDy=0;entryX=0.5;entryY=0;entryDx=0;entryDy=0;fontSize=25;dashed=1;" edge="1" parent="1" source="KAlw1xMLLrrgvb6lXqrv-222" target="KAlw1xMLLrrgvb6lXqrv-223">
          <mxGeometry relative="1" as="geometry" />
        </mxCell>
        <mxCell id="KAlw1xMLLrrgvb6lXqrv-221" value="1" style="rounded=0;orthogonalLoop=1;jettySize=auto;html=1;exitX=1;exitY=1;exitDx=0;exitDy=0;entryX=0.5;entryY=0;entryDx=0;entryDy=0;fontSize=25;dashed=1;" edge="1" parent="1" source="KAlw1xMLLrrgvb6lXqrv-222" target="KAlw1xMLLrrgvb6lXqrv-224">
          <mxGeometry relative="1" as="geometry" />
        </mxCell>
        <mxCell id="KAlw1xMLLrrgvb6lXqrv-222" value="" style="ellipse;whiteSpace=wrap;html=1;aspect=fixed;fontSize=30;dashed=1;" vertex="1" parent="1">
          <mxGeometry x="371.5" y="482.25" width="40" height="40" as="geometry" />
        </mxCell>
        <mxCell id="KAlw1xMLLrrgvb6lXqrv-223" value="" style="ellipse;whiteSpace=wrap;html=1;aspect=fixed;fontSize=30;dashed=1;" vertex="1" parent="1">
          <mxGeometry x="351.5" y="570" width="30" height="30" as="geometry" />
        </mxCell>
        <mxCell id="KAlw1xMLLrrgvb6lXqrv-224" value="" style="ellipse;whiteSpace=wrap;html=1;aspect=fixed;fontSize=30;dashed=1;" vertex="1" parent="1">
          <mxGeometry x="401.5" y="570" width="30" height="30" as="geometry" />
        </mxCell>
        <mxCell id="KAlw1xMLLrrgvb6lXqrv-225" value="0" style="rounded=0;orthogonalLoop=1;jettySize=auto;html=1;exitX=0;exitY=1;exitDx=0;exitDy=0;entryX=0.5;entryY=0;entryDx=0;entryDy=0;fontSize=25;dashed=1;" edge="1" parent="1" source="KAlw1xMLLrrgvb6lXqrv-227" target="KAlw1xMLLrrgvb6lXqrv-228">
          <mxGeometry relative="1" as="geometry" />
        </mxCell>
        <mxCell id="KAlw1xMLLrrgvb6lXqrv-226" value="1" style="rounded=0;orthogonalLoop=1;jettySize=auto;html=1;exitX=1;exitY=1;exitDx=0;exitDy=0;entryX=0.5;entryY=0;entryDx=0;entryDy=0;fontSize=25;dashed=1;" edge="1" parent="1" source="KAlw1xMLLrrgvb6lXqrv-227" target="KAlw1xMLLrrgvb6lXqrv-229">
          <mxGeometry relative="1" as="geometry" />
        </mxCell>
        <mxCell id="KAlw1xMLLrrgvb6lXqrv-227" value="" style="ellipse;whiteSpace=wrap;html=1;aspect=fixed;fontSize=30;dashed=1;" vertex="1" parent="1">
          <mxGeometry x="268.5" y="482.25" width="40" height="40" as="geometry" />
        </mxCell>
        <mxCell id="KAlw1xMLLrrgvb6lXqrv-228" value="" style="ellipse;whiteSpace=wrap;html=1;aspect=fixed;fontSize=30;dashed=1;" vertex="1" parent="1">
          <mxGeometry x="248.5" y="570" width="30" height="30" as="geometry" />
        </mxCell>
        <mxCell id="KAlw1xMLLrrgvb6lXqrv-229" value="" style="ellipse;whiteSpace=wrap;html=1;aspect=fixed;fontSize=30;dashed=1;" vertex="1" parent="1">
          <mxGeometry x="298.5" y="570" width="30" height="30" as="geometry" />
        </mxCell>
        <mxCell id="KAlw1xMLLrrgvb6lXqrv-230" value="0" style="rounded=0;orthogonalLoop=1;jettySize=auto;html=1;exitX=0;exitY=1;exitDx=0;exitDy=0;entryX=0.5;entryY=0;entryDx=0;entryDy=0;fontSize=30;dashed=1;" edge="1" parent="1" source="KAlw1xMLLrrgvb6lXqrv-232" target="KAlw1xMLLrrgvb6lXqrv-240">
          <mxGeometry relative="1" as="geometry" />
        </mxCell>
        <mxCell id="KAlw1xMLLrrgvb6lXqrv-231" value="1" style="rounded=0;orthogonalLoop=1;jettySize=auto;html=1;exitX=1;exitY=1;exitDx=0;exitDy=0;entryX=0.5;entryY=0;entryDx=0;entryDy=0;fontSize=30;dashed=1;" edge="1" parent="1" source="KAlw1xMLLrrgvb6lXqrv-232" target="KAlw1xMLLrrgvb6lXqrv-235">
          <mxGeometry relative="1" as="geometry" />
        </mxCell>
        <mxCell id="KAlw1xMLLrrgvb6lXqrv-232" value="" style="ellipse;whiteSpace=wrap;html=1;aspect=fixed;fontSize=30;dashed=1;" vertex="1" parent="1">
          <mxGeometry x="121.5" y="403.75" width="40" height="40" as="geometry" />
        </mxCell>
        <mxCell id="KAlw1xMLLrrgvb6lXqrv-233" value="0" style="rounded=0;orthogonalLoop=1;jettySize=auto;html=1;exitX=0;exitY=1;exitDx=0;exitDy=0;entryX=0.5;entryY=0;entryDx=0;entryDy=0;fontSize=25;dashed=1;" edge="1" parent="1" source="KAlw1xMLLrrgvb6lXqrv-235" target="KAlw1xMLLrrgvb6lXqrv-236">
          <mxGeometry relative="1" as="geometry" />
        </mxCell>
        <mxCell id="KAlw1xMLLrrgvb6lXqrv-234" value="1" style="rounded=0;orthogonalLoop=1;jettySize=auto;html=1;exitX=1;exitY=1;exitDx=0;exitDy=0;entryX=0.5;entryY=0;entryDx=0;entryDy=0;fontSize=25;dashed=1;" edge="1" parent="1" source="KAlw1xMLLrrgvb6lXqrv-235" target="KAlw1xMLLrrgvb6lXqrv-237">
          <mxGeometry relative="1" as="geometry" />
        </mxCell>
        <mxCell id="KAlw1xMLLrrgvb6lXqrv-235" value="" style="ellipse;whiteSpace=wrap;html=1;aspect=fixed;fontSize=30;dashed=1;" vertex="1" parent="1">
          <mxGeometry x="174.5" y="483.75" width="40" height="40" as="geometry" />
        </mxCell>
        <mxCell id="KAlw1xMLLrrgvb6lXqrv-236" value="" style="ellipse;whiteSpace=wrap;html=1;aspect=fixed;fontSize=30;dashed=1;" vertex="1" parent="1">
          <mxGeometry x="154.5" y="570" width="30" height="30" as="geometry" />
        </mxCell>
        <mxCell id="KAlw1xMLLrrgvb6lXqrv-237" value="" style="ellipse;whiteSpace=wrap;html=1;aspect=fixed;fontSize=30;dashed=1;" vertex="1" parent="1">
          <mxGeometry x="204.5" y="570" width="30" height="30" as="geometry" />
        </mxCell>
        <mxCell id="KAlw1xMLLrrgvb6lXqrv-238" value="0" style="rounded=0;orthogonalLoop=1;jettySize=auto;html=1;exitX=0;exitY=1;exitDx=0;exitDy=0;entryX=0.5;entryY=0;entryDx=0;entryDy=0;fontSize=25;dashed=1;" edge="1" parent="1" source="KAlw1xMLLrrgvb6lXqrv-240" target="KAlw1xMLLrrgvb6lXqrv-241">
          <mxGeometry relative="1" as="geometry" />
        </mxCell>
        <mxCell id="KAlw1xMLLrrgvb6lXqrv-239" value="1" style="rounded=0;orthogonalLoop=1;jettySize=auto;html=1;exitX=1;exitY=1;exitDx=0;exitDy=0;entryX=0.5;entryY=0;entryDx=0;entryDy=0;fontSize=25;dashed=1;" edge="1" parent="1" source="KAlw1xMLLrrgvb6lXqrv-240" target="KAlw1xMLLrrgvb6lXqrv-242">
          <mxGeometry relative="1" as="geometry" />
        </mxCell>
        <mxCell id="KAlw1xMLLrrgvb6lXqrv-240" value="" style="ellipse;whiteSpace=wrap;html=1;aspect=fixed;fontSize=30;dashed=1;" vertex="1" parent="1">
          <mxGeometry x="71.5" y="483.75" width="40" height="40" as="geometry" />
        </mxCell>
        <mxCell id="KAlw1xMLLrrgvb6lXqrv-241" value="" style="ellipse;whiteSpace=wrap;html=1;aspect=fixed;fontSize=30;dashed=1;" vertex="1" parent="1">
          <mxGeometry x="51.5" y="570" width="30" height="30" as="geometry" />
        </mxCell>
        <mxCell id="KAlw1xMLLrrgvb6lXqrv-242" value="" style="ellipse;whiteSpace=wrap;html=1;aspect=fixed;fontSize=30;dashed=1;" vertex="1" parent="1">
          <mxGeometry x="101.5" y="570" width="30" height="30" as="geometry" />
        </mxCell>
        <mxCell id="KAlw1xMLLrrgvb6lXqrv-243" value="" style="ellipse;whiteSpace=wrap;html=1;fontSize=30;" vertex="1" parent="1">
          <mxGeometry x="1597" y="120" width="80" height="80" as="geometry" />
        </mxCell>
        <mxCell id="KAlw1xMLLrrgvb6lXqrv-244" value="1" style="rounded=0;orthogonalLoop=1;jettySize=auto;html=1;exitX=1;exitY=1;exitDx=0;exitDy=0;entryX=0.5;entryY=0;entryDx=0;entryDy=0;fontSize=30;" edge="1" parent="1" source="KAlw1xMLLrrgvb6lXqrv-243" target="KAlw1xMLLrrgvb6lXqrv-309">
          <mxGeometry relative="1" as="geometry">
            <mxPoint x="1665.2842712474624" y="200.00427124746213" as="sourcePoint" />
            <mxPoint x="1817" y="243.72000000000003" as="targetPoint" />
          </mxGeometry>
        </mxCell>
        <mxCell id="KAlw1xMLLrrgvb6lXqrv-245" value="0" style="endArrow=classic;html=1;rounded=0;exitX=0;exitY=1;exitDx=0;exitDy=0;entryX=0.5;entryY=0;entryDx=0;entryDy=0;fontSize=30;" edge="1" parent="1" source="KAlw1xMLLrrgvb6lXqrv-243" target="KAlw1xMLLrrgvb6lXqrv-246">
          <mxGeometry width="50" height="50" relative="1" as="geometry">
            <mxPoint x="1608.7157287525383" y="200.0042712474618" as="sourcePoint" />
            <mxPoint x="1548" y="243.72" as="targetPoint" />
            <Array as="points" />
          </mxGeometry>
        </mxCell>
        <mxCell id="KAlw1xMLLrrgvb6lXqrv-246" value="" style="ellipse;whiteSpace=wrap;html=1;aspect=fixed;fontSize=30;" vertex="1" parent="1">
          <mxGeometry x="1217" y="240" width="40" height="40" as="geometry" />
        </mxCell>
        <mxCell id="KAlw1xMLLrrgvb6lXqrv-247" value="1" style="rounded=0;orthogonalLoop=1;jettySize=auto;html=1;exitX=1;exitY=1;exitDx=0;exitDy=0;fontSize=30;entryX=0.5;entryY=0;entryDx=0;entryDy=0;" edge="1" parent="1" source="KAlw1xMLLrrgvb6lXqrv-246" target="KAlw1xMLLrrgvb6lXqrv-252">
          <mxGeometry relative="1" as="geometry">
            <mxPoint x="1428" y="274" as="sourcePoint" />
            <mxPoint x="1454" y="320" as="targetPoint" />
          </mxGeometry>
        </mxCell>
        <mxCell id="KAlw1xMLLrrgvb6lXqrv-248" value="0" style="endArrow=classic;html=1;rounded=0;exitX=0;exitY=1;exitDx=0;exitDy=0;fontSize=30;entryX=0.5;entryY=0;entryDx=0;entryDy=0;" edge="1" parent="1" source="KAlw1xMLLrrgvb6lXqrv-246" target="KAlw1xMLLrrgvb6lXqrv-282">
          <mxGeometry width="50" height="50" relative="1" as="geometry">
            <mxPoint x="1400" y="274" as="sourcePoint" />
            <mxPoint x="1057" y="320" as="targetPoint" />
            <Array as="points" />
          </mxGeometry>
        </mxCell>
        <mxCell id="KAlw1xMLLrrgvb6lXqrv-249" value="0" style="rounded=0;orthogonalLoop=1;jettySize=auto;html=1;exitX=0;exitY=1;exitDx=0;exitDy=0;fontSize=30;entryX=0.5;entryY=0;entryDx=0;entryDy=0;" edge="1" parent="1" source="KAlw1xMLLrrgvb6lXqrv-252" target="KAlw1xMLLrrgvb6lXqrv-268">
          <mxGeometry relative="1" as="geometry">
            <mxPoint x="1367" y="400" as="targetPoint" />
          </mxGeometry>
        </mxCell>
        <mxCell id="KAlw1xMLLrrgvb6lXqrv-250" value="1" style="rounded=0;orthogonalLoop=1;jettySize=auto;html=1;exitX=1;exitY=1;exitDx=0;exitDy=0;entryX=0.5;entryY=0;entryDx=0;entryDy=0;fontSize=30;" edge="1" parent="1" source="KAlw1xMLLrrgvb6lXqrv-252" target="KAlw1xMLLrrgvb6lXqrv-255">
          <mxGeometry relative="1" as="geometry" />
        </mxCell>
        <mxCell id="KAlw1xMLLrrgvb6lXqrv-252" value="" style="ellipse;whiteSpace=wrap;html=1;aspect=fixed;fontSize=30;" vertex="1" parent="1">
          <mxGeometry x="1417" y="320" width="40" height="40" as="geometry" />
        </mxCell>
        <mxCell id="KAlw1xMLLrrgvb6lXqrv-253" value="0" style="rounded=0;orthogonalLoop=1;jettySize=auto;html=1;exitX=0;exitY=1;exitDx=0;exitDy=0;entryX=0.5;entryY=0;entryDx=0;entryDy=0;fontSize=30;dashed=1;" edge="1" parent="1" source="KAlw1xMLLrrgvb6lXqrv-255" target="KAlw1xMLLrrgvb6lXqrv-263">
          <mxGeometry relative="1" as="geometry" />
        </mxCell>
        <mxCell id="KAlw1xMLLrrgvb6lXqrv-254" value="1" style="rounded=0;orthogonalLoop=1;jettySize=auto;html=1;exitX=1;exitY=1;exitDx=0;exitDy=0;entryX=0.5;entryY=0;entryDx=0;entryDy=0;fontSize=30;dashed=1;" edge="1" parent="1" source="KAlw1xMLLrrgvb6lXqrv-255" target="KAlw1xMLLrrgvb6lXqrv-258">
          <mxGeometry relative="1" as="geometry" />
        </mxCell>
        <mxCell id="KAlw1xMLLrrgvb6lXqrv-255" value="&lt;font style=&quot;font-size: 15px;&quot;&gt;1011&lt;/font&gt;" style="ellipse;whiteSpace=wrap;html=1;aspect=fixed;fontSize=30;fillColor=#ffe6cc;strokeColor=#d79b00;" vertex="1" parent="1">
          <mxGeometry x="1514" y="400" width="40" height="40" as="geometry" />
        </mxCell>
        <mxCell id="KAlw1xMLLrrgvb6lXqrv-256" value="0" style="rounded=0;orthogonalLoop=1;jettySize=auto;html=1;exitX=0;exitY=1;exitDx=0;exitDy=0;entryX=0.5;entryY=0;entryDx=0;entryDy=0;fontSize=25;dashed=1;" edge="1" parent="1" source="KAlw1xMLLrrgvb6lXqrv-258" target="KAlw1xMLLrrgvb6lXqrv-259">
          <mxGeometry relative="1" as="geometry" />
        </mxCell>
        <mxCell id="KAlw1xMLLrrgvb6lXqrv-257" value="1" style="rounded=0;orthogonalLoop=1;jettySize=auto;html=1;exitX=1;exitY=1;exitDx=0;exitDy=0;entryX=0.5;entryY=0;entryDx=0;entryDy=0;fontSize=25;dashed=1;" edge="1" parent="1" source="KAlw1xMLLrrgvb6lXqrv-258" target="KAlw1xMLLrrgvb6lXqrv-260">
          <mxGeometry relative="1" as="geometry" />
        </mxCell>
        <mxCell id="KAlw1xMLLrrgvb6lXqrv-258" value="" style="ellipse;whiteSpace=wrap;html=1;aspect=fixed;fontSize=30;dashed=1;" vertex="1" parent="1">
          <mxGeometry x="1567" y="480" width="40" height="40" as="geometry" />
        </mxCell>
        <mxCell id="KAlw1xMLLrrgvb6lXqrv-259" value="" style="ellipse;whiteSpace=wrap;html=1;aspect=fixed;fontSize=30;dashed=1;" vertex="1" parent="1">
          <mxGeometry x="1547" y="570" width="30" height="30" as="geometry" />
        </mxCell>
        <mxCell id="KAlw1xMLLrrgvb6lXqrv-260" value="" style="ellipse;whiteSpace=wrap;html=1;aspect=fixed;fontSize=30;dashed=1;" vertex="1" parent="1">
          <mxGeometry x="1597" y="570" width="30" height="30" as="geometry" />
        </mxCell>
        <mxCell id="KAlw1xMLLrrgvb6lXqrv-261" value="0" style="rounded=0;orthogonalLoop=1;jettySize=auto;html=1;exitX=0;exitY=1;exitDx=0;exitDy=0;entryX=0.5;entryY=0;entryDx=0;entryDy=0;fontSize=25;dashed=1;" edge="1" parent="1" source="KAlw1xMLLrrgvb6lXqrv-263" target="KAlw1xMLLrrgvb6lXqrv-264">
          <mxGeometry relative="1" as="geometry" />
        </mxCell>
        <mxCell id="KAlw1xMLLrrgvb6lXqrv-262" value="1" style="rounded=0;orthogonalLoop=1;jettySize=auto;html=1;exitX=1;exitY=1;exitDx=0;exitDy=0;entryX=0.5;entryY=0;entryDx=0;entryDy=0;fontSize=25;dashed=1;" edge="1" parent="1" source="KAlw1xMLLrrgvb6lXqrv-263" target="KAlw1xMLLrrgvb6lXqrv-265">
          <mxGeometry relative="1" as="geometry" />
        </mxCell>
        <mxCell id="KAlw1xMLLrrgvb6lXqrv-263" value="" style="ellipse;whiteSpace=wrap;html=1;aspect=fixed;fontSize=30;dashed=1;" vertex="1" parent="1">
          <mxGeometry x="1464" y="480" width="40" height="40" as="geometry" />
        </mxCell>
        <mxCell id="KAlw1xMLLrrgvb6lXqrv-264" value="" style="ellipse;whiteSpace=wrap;html=1;aspect=fixed;fontSize=30;dashed=1;" vertex="1" parent="1">
          <mxGeometry x="1444" y="570" width="30" height="30" as="geometry" />
        </mxCell>
        <mxCell id="KAlw1xMLLrrgvb6lXqrv-265" value="" style="ellipse;whiteSpace=wrap;html=1;aspect=fixed;fontSize=30;dashed=1;" vertex="1" parent="1">
          <mxGeometry x="1494" y="570" width="30" height="30" as="geometry" />
        </mxCell>
        <mxCell id="KAlw1xMLLrrgvb6lXqrv-266" value="0" style="rounded=0;orthogonalLoop=1;jettySize=auto;html=1;exitX=0;exitY=1;exitDx=0;exitDy=0;entryX=0.5;entryY=0;entryDx=0;entryDy=0;fontSize=30;dashed=1;" edge="1" parent="1" source="KAlw1xMLLrrgvb6lXqrv-268" target="KAlw1xMLLrrgvb6lXqrv-276">
          <mxGeometry relative="1" as="geometry" />
        </mxCell>
        <mxCell id="KAlw1xMLLrrgvb6lXqrv-267" value="1" style="rounded=0;orthogonalLoop=1;jettySize=auto;html=1;exitX=1;exitY=1;exitDx=0;exitDy=0;entryX=0.5;entryY=0;entryDx=0;entryDy=0;fontSize=30;dashed=1;" edge="1" parent="1" source="KAlw1xMLLrrgvb6lXqrv-268" target="KAlw1xMLLrrgvb6lXqrv-271">
          <mxGeometry relative="1" as="geometry" />
        </mxCell>
        <mxCell id="KAlw1xMLLrrgvb6lXqrv-268" value="&lt;font style=&quot;font-size: 15px;&quot;&gt;1010&lt;/font&gt;" style="ellipse;whiteSpace=wrap;html=1;aspect=fixed;fontSize=30;fillColor=#ffe6cc;strokeColor=#d79b00;" vertex="1" parent="1">
          <mxGeometry x="1317" y="401.5" width="40" height="40" as="geometry" />
        </mxCell>
        <mxCell id="KAlw1xMLLrrgvb6lXqrv-269" value="0" style="rounded=0;orthogonalLoop=1;jettySize=auto;html=1;exitX=0;exitY=1;exitDx=0;exitDy=0;entryX=0.5;entryY=0;entryDx=0;entryDy=0;fontSize=25;dashed=1;" edge="1" parent="1" source="KAlw1xMLLrrgvb6lXqrv-271" target="KAlw1xMLLrrgvb6lXqrv-272">
          <mxGeometry relative="1" as="geometry" />
        </mxCell>
        <mxCell id="KAlw1xMLLrrgvb6lXqrv-270" value="1" style="rounded=0;orthogonalLoop=1;jettySize=auto;html=1;exitX=1;exitY=1;exitDx=0;exitDy=0;entryX=0.5;entryY=0;entryDx=0;entryDy=0;fontSize=25;dashed=1;" edge="1" parent="1" source="KAlw1xMLLrrgvb6lXqrv-271" target="KAlw1xMLLrrgvb6lXqrv-273">
          <mxGeometry relative="1" as="geometry" />
        </mxCell>
        <mxCell id="KAlw1xMLLrrgvb6lXqrv-271" value="" style="ellipse;whiteSpace=wrap;html=1;aspect=fixed;fontSize=30;dashed=1;" vertex="1" parent="1">
          <mxGeometry x="1370" y="481.5" width="40" height="40" as="geometry" />
        </mxCell>
        <mxCell id="KAlw1xMLLrrgvb6lXqrv-272" value="" style="ellipse;whiteSpace=wrap;html=1;aspect=fixed;fontSize=30;dashed=1;" vertex="1" parent="1">
          <mxGeometry x="1350" y="570" width="30" height="30" as="geometry" />
        </mxCell>
        <mxCell id="KAlw1xMLLrrgvb6lXqrv-273" value="" style="ellipse;whiteSpace=wrap;html=1;aspect=fixed;fontSize=30;dashed=1;" vertex="1" parent="1">
          <mxGeometry x="1400" y="570" width="30" height="30" as="geometry" />
        </mxCell>
        <mxCell id="KAlw1xMLLrrgvb6lXqrv-274" value="0" style="rounded=0;orthogonalLoop=1;jettySize=auto;html=1;exitX=0;exitY=1;exitDx=0;exitDy=0;entryX=0.5;entryY=0;entryDx=0;entryDy=0;fontSize=25;dashed=1;" edge="1" parent="1" source="KAlw1xMLLrrgvb6lXqrv-276" target="KAlw1xMLLrrgvb6lXqrv-277">
          <mxGeometry relative="1" as="geometry" />
        </mxCell>
        <mxCell id="KAlw1xMLLrrgvb6lXqrv-275" value="1" style="rounded=0;orthogonalLoop=1;jettySize=auto;html=1;exitX=1;exitY=1;exitDx=0;exitDy=0;entryX=0.5;entryY=0;entryDx=0;entryDy=0;fontSize=25;dashed=1;" edge="1" parent="1" source="KAlw1xMLLrrgvb6lXqrv-276" target="KAlw1xMLLrrgvb6lXqrv-278">
          <mxGeometry relative="1" as="geometry" />
        </mxCell>
        <mxCell id="KAlw1xMLLrrgvb6lXqrv-276" value="" style="ellipse;whiteSpace=wrap;html=1;aspect=fixed;fontSize=30;dashed=1;" vertex="1" parent="1">
          <mxGeometry x="1267" y="481.5" width="40" height="40" as="geometry" />
        </mxCell>
        <mxCell id="KAlw1xMLLrrgvb6lXqrv-277" value="" style="ellipse;whiteSpace=wrap;html=1;aspect=fixed;fontSize=30;dashed=1;" vertex="1" parent="1">
          <mxGeometry x="1247" y="570" width="30" height="30" as="geometry" />
        </mxCell>
        <mxCell id="KAlw1xMLLrrgvb6lXqrv-278" value="" style="ellipse;whiteSpace=wrap;html=1;aspect=fixed;fontSize=30;dashed=1;" vertex="1" parent="1">
          <mxGeometry x="1297" y="570" width="30" height="30" as="geometry" />
        </mxCell>
        <mxCell id="KAlw1xMLLrrgvb6lXqrv-279" value="0" style="rounded=0;orthogonalLoop=1;jettySize=auto;html=1;exitX=0;exitY=1;exitDx=0;exitDy=0;fontSize=30;entryX=0.5;entryY=0;entryDx=0;entryDy=0;dashed=1;" edge="1" parent="1" source="KAlw1xMLLrrgvb6lXqrv-282" target="KAlw1xMLLrrgvb6lXqrv-298">
          <mxGeometry relative="1" as="geometry">
            <mxPoint x="970" y="400" as="targetPoint" />
          </mxGeometry>
        </mxCell>
        <mxCell id="KAlw1xMLLrrgvb6lXqrv-280" value="1" style="rounded=0;orthogonalLoop=1;jettySize=auto;html=1;exitX=1;exitY=1;exitDx=0;exitDy=0;entryX=0.5;entryY=0;entryDx=0;entryDy=0;fontSize=30;dashed=1;" edge="1" parent="1" source="KAlw1xMLLrrgvb6lXqrv-282" target="KAlw1xMLLrrgvb6lXqrv-285">
          <mxGeometry relative="1" as="geometry" />
        </mxCell>
        <mxCell id="KAlw1xMLLrrgvb6lXqrv-282" value="&lt;font style=&quot;font-size: 18px;&quot;&gt;100&lt;/font&gt;" style="ellipse;whiteSpace=wrap;html=1;aspect=fixed;fontSize=30;fillColor=#ffe6cc;strokeColor=#d79b00;" vertex="1" parent="1">
          <mxGeometry x="1020" y="320" width="40" height="40" as="geometry" />
        </mxCell>
        <mxCell id="KAlw1xMLLrrgvb6lXqrv-283" value="0" style="rounded=0;orthogonalLoop=1;jettySize=auto;html=1;exitX=0;exitY=1;exitDx=0;exitDy=0;entryX=0.5;entryY=0;entryDx=0;entryDy=0;fontSize=30;dashed=1;" edge="1" parent="1" source="KAlw1xMLLrrgvb6lXqrv-285" target="KAlw1xMLLrrgvb6lXqrv-293">
          <mxGeometry relative="1" as="geometry" />
        </mxCell>
        <mxCell id="KAlw1xMLLrrgvb6lXqrv-284" value="1" style="rounded=0;orthogonalLoop=1;jettySize=auto;html=1;exitX=1;exitY=1;exitDx=0;exitDy=0;entryX=0.5;entryY=0;entryDx=0;entryDy=0;fontSize=30;dashed=1;" edge="1" parent="1" source="KAlw1xMLLrrgvb6lXqrv-285" target="KAlw1xMLLrrgvb6lXqrv-288">
          <mxGeometry relative="1" as="geometry" />
        </mxCell>
        <mxCell id="KAlw1xMLLrrgvb6lXqrv-285" value="" style="ellipse;whiteSpace=wrap;html=1;aspect=fixed;fontSize=30;dashed=1;" vertex="1" parent="1">
          <mxGeometry x="1117" y="400" width="40" height="40" as="geometry" />
        </mxCell>
        <mxCell id="KAlw1xMLLrrgvb6lXqrv-286" value="0" style="rounded=0;orthogonalLoop=1;jettySize=auto;html=1;exitX=0;exitY=1;exitDx=0;exitDy=0;entryX=0.5;entryY=0;entryDx=0;entryDy=0;fontSize=25;dashed=1;" edge="1" parent="1" source="KAlw1xMLLrrgvb6lXqrv-288" target="KAlw1xMLLrrgvb6lXqrv-289">
          <mxGeometry relative="1" as="geometry" />
        </mxCell>
        <mxCell id="KAlw1xMLLrrgvb6lXqrv-287" value="1" style="rounded=0;orthogonalLoop=1;jettySize=auto;html=1;exitX=1;exitY=1;exitDx=0;exitDy=0;entryX=0.5;entryY=0;entryDx=0;entryDy=0;fontSize=25;dashed=1;" edge="1" parent="1" source="KAlw1xMLLrrgvb6lXqrv-288" target="KAlw1xMLLrrgvb6lXqrv-290">
          <mxGeometry relative="1" as="geometry" />
        </mxCell>
        <mxCell id="KAlw1xMLLrrgvb6lXqrv-288" value="" style="ellipse;whiteSpace=wrap;html=1;aspect=fixed;fontSize=30;dashed=1;" vertex="1" parent="1">
          <mxGeometry x="1170" y="480" width="40" height="40" as="geometry" />
        </mxCell>
        <mxCell id="KAlw1xMLLrrgvb6lXqrv-289" value="" style="ellipse;whiteSpace=wrap;html=1;aspect=fixed;fontSize=30;dashed=1;" vertex="1" parent="1">
          <mxGeometry x="1150" y="570" width="30" height="30" as="geometry" />
        </mxCell>
        <mxCell id="KAlw1xMLLrrgvb6lXqrv-290" value="" style="ellipse;whiteSpace=wrap;html=1;aspect=fixed;fontSize=30;dashed=1;" vertex="1" parent="1">
          <mxGeometry x="1200" y="570" width="30" height="30" as="geometry" />
        </mxCell>
        <mxCell id="KAlw1xMLLrrgvb6lXqrv-291" value="0" style="rounded=0;orthogonalLoop=1;jettySize=auto;html=1;exitX=0;exitY=1;exitDx=0;exitDy=0;entryX=0.5;entryY=0;entryDx=0;entryDy=0;fontSize=25;dashed=1;" edge="1" parent="1" source="KAlw1xMLLrrgvb6lXqrv-293" target="KAlw1xMLLrrgvb6lXqrv-294">
          <mxGeometry relative="1" as="geometry" />
        </mxCell>
        <mxCell id="KAlw1xMLLrrgvb6lXqrv-292" value="1" style="rounded=0;orthogonalLoop=1;jettySize=auto;html=1;exitX=1;exitY=1;exitDx=0;exitDy=0;entryX=0.5;entryY=0;entryDx=0;entryDy=0;fontSize=25;dashed=1;" edge="1" parent="1" source="KAlw1xMLLrrgvb6lXqrv-293" target="KAlw1xMLLrrgvb6lXqrv-295">
          <mxGeometry relative="1" as="geometry" />
        </mxCell>
        <mxCell id="KAlw1xMLLrrgvb6lXqrv-293" value="" style="ellipse;whiteSpace=wrap;html=1;aspect=fixed;fontSize=30;dashed=1;" vertex="1" parent="1">
          <mxGeometry x="1067" y="480" width="40" height="40" as="geometry" />
        </mxCell>
        <mxCell id="KAlw1xMLLrrgvb6lXqrv-294" value="" style="ellipse;whiteSpace=wrap;html=1;aspect=fixed;fontSize=30;dashed=1;" vertex="1" parent="1">
          <mxGeometry x="1047" y="570" width="30" height="30" as="geometry" />
        </mxCell>
        <mxCell id="KAlw1xMLLrrgvb6lXqrv-295" value="" style="ellipse;whiteSpace=wrap;html=1;aspect=fixed;fontSize=30;dashed=1;" vertex="1" parent="1">
          <mxGeometry x="1097" y="570" width="30" height="30" as="geometry" />
        </mxCell>
        <mxCell id="KAlw1xMLLrrgvb6lXqrv-296" value="0" style="rounded=0;orthogonalLoop=1;jettySize=auto;html=1;exitX=0;exitY=1;exitDx=0;exitDy=0;entryX=0.5;entryY=0;entryDx=0;entryDy=0;fontSize=30;dashed=1;" edge="1" parent="1" source="KAlw1xMLLrrgvb6lXqrv-298" target="KAlw1xMLLrrgvb6lXqrv-306">
          <mxGeometry relative="1" as="geometry" />
        </mxCell>
        <mxCell id="KAlw1xMLLrrgvb6lXqrv-297" value="1" style="rounded=0;orthogonalLoop=1;jettySize=auto;html=1;exitX=1;exitY=1;exitDx=0;exitDy=0;entryX=0.5;entryY=0;entryDx=0;entryDy=0;fontSize=30;dashed=1;" edge="1" parent="1" source="KAlw1xMLLrrgvb6lXqrv-298" target="KAlw1xMLLrrgvb6lXqrv-301">
          <mxGeometry relative="1" as="geometry" />
        </mxCell>
        <mxCell id="KAlw1xMLLrrgvb6lXqrv-298" value="" style="ellipse;whiteSpace=wrap;html=1;aspect=fixed;fontSize=30;dashed=1;" vertex="1" parent="1">
          <mxGeometry x="920" y="401.5" width="40" height="40" as="geometry" />
        </mxCell>
        <mxCell id="KAlw1xMLLrrgvb6lXqrv-299" value="0" style="rounded=0;orthogonalLoop=1;jettySize=auto;html=1;exitX=0;exitY=1;exitDx=0;exitDy=0;entryX=0.5;entryY=0;entryDx=0;entryDy=0;fontSize=25;dashed=1;" edge="1" parent="1" source="KAlw1xMLLrrgvb6lXqrv-301" target="KAlw1xMLLrrgvb6lXqrv-302">
          <mxGeometry relative="1" as="geometry" />
        </mxCell>
        <mxCell id="KAlw1xMLLrrgvb6lXqrv-300" value="1" style="rounded=0;orthogonalLoop=1;jettySize=auto;html=1;exitX=1;exitY=1;exitDx=0;exitDy=0;entryX=0.5;entryY=0;entryDx=0;entryDy=0;fontSize=25;dashed=1;" edge="1" parent="1" source="KAlw1xMLLrrgvb6lXqrv-301" target="KAlw1xMLLrrgvb6lXqrv-303">
          <mxGeometry relative="1" as="geometry" />
        </mxCell>
        <mxCell id="KAlw1xMLLrrgvb6lXqrv-301" value="" style="ellipse;whiteSpace=wrap;html=1;aspect=fixed;fontSize=30;dashed=1;" vertex="1" parent="1">
          <mxGeometry x="973" y="481.5" width="40" height="40" as="geometry" />
        </mxCell>
        <mxCell id="KAlw1xMLLrrgvb6lXqrv-302" value="" style="ellipse;whiteSpace=wrap;html=1;aspect=fixed;fontSize=30;dashed=1;" vertex="1" parent="1">
          <mxGeometry x="953" y="570" width="30" height="30" as="geometry" />
        </mxCell>
        <mxCell id="KAlw1xMLLrrgvb6lXqrv-303" value="" style="ellipse;whiteSpace=wrap;html=1;aspect=fixed;fontSize=30;dashed=1;" vertex="1" parent="1">
          <mxGeometry x="1003" y="570" width="30" height="30" as="geometry" />
        </mxCell>
        <mxCell id="KAlw1xMLLrrgvb6lXqrv-304" value="0" style="rounded=0;orthogonalLoop=1;jettySize=auto;html=1;exitX=0;exitY=1;exitDx=0;exitDy=0;entryX=0.5;entryY=0;entryDx=0;entryDy=0;fontSize=25;dashed=1;" edge="1" parent="1" source="KAlw1xMLLrrgvb6lXqrv-306" target="KAlw1xMLLrrgvb6lXqrv-307">
          <mxGeometry relative="1" as="geometry" />
        </mxCell>
        <mxCell id="KAlw1xMLLrrgvb6lXqrv-305" value="1" style="rounded=0;orthogonalLoop=1;jettySize=auto;html=1;exitX=1;exitY=1;exitDx=0;exitDy=0;entryX=0.5;entryY=0;entryDx=0;entryDy=0;fontSize=25;dashed=1;" edge="1" parent="1" source="KAlw1xMLLrrgvb6lXqrv-306" target="KAlw1xMLLrrgvb6lXqrv-308">
          <mxGeometry relative="1" as="geometry" />
        </mxCell>
        <mxCell id="KAlw1xMLLrrgvb6lXqrv-306" value="" style="ellipse;whiteSpace=wrap;html=1;aspect=fixed;fontSize=30;dashed=1;" vertex="1" parent="1">
          <mxGeometry x="870" y="481.5" width="40" height="40" as="geometry" />
        </mxCell>
        <mxCell id="KAlw1xMLLrrgvb6lXqrv-307" value="" style="ellipse;whiteSpace=wrap;html=1;aspect=fixed;fontSize=30;dashed=1;" vertex="1" parent="1">
          <mxGeometry x="850" y="570" width="30" height="30" as="geometry" />
        </mxCell>
        <mxCell id="KAlw1xMLLrrgvb6lXqrv-308" value="" style="ellipse;whiteSpace=wrap;html=1;aspect=fixed;fontSize=30;dashed=1;" vertex="1" parent="1">
          <mxGeometry x="900" y="570" width="30" height="30" as="geometry" />
        </mxCell>
        <mxCell id="KAlw1xMLLrrgvb6lXqrv-309" value="" style="ellipse;whiteSpace=wrap;html=1;aspect=fixed;fontSize=30;" vertex="1" parent="1">
          <mxGeometry x="2015.5" y="242.25" width="40" height="40" as="geometry" />
        </mxCell>
        <mxCell id="KAlw1xMLLrrgvb6lXqrv-310" value="1" style="rounded=0;orthogonalLoop=1;jettySize=auto;html=1;exitX=1;exitY=1;exitDx=0;exitDy=0;fontSize=30;entryX=0.5;entryY=0;entryDx=0;entryDy=0;" edge="1" parent="1" source="KAlw1xMLLrrgvb6lXqrv-309" target="KAlw1xMLLrrgvb6lXqrv-315">
          <mxGeometry relative="1" as="geometry">
            <mxPoint x="2226.5" y="276.25" as="sourcePoint" />
            <mxPoint x="2252.5" y="322.25" as="targetPoint" />
          </mxGeometry>
        </mxCell>
        <mxCell id="KAlw1xMLLrrgvb6lXqrv-311" value="0" style="endArrow=classic;html=1;rounded=0;exitX=0;exitY=1;exitDx=0;exitDy=0;fontSize=30;entryX=0.5;entryY=0;entryDx=0;entryDy=0;" edge="1" parent="1" source="KAlw1xMLLrrgvb6lXqrv-309" target="KAlw1xMLLrrgvb6lXqrv-345">
          <mxGeometry width="50" height="50" relative="1" as="geometry">
            <mxPoint x="2198.5" y="276.25" as="sourcePoint" />
            <mxPoint x="1855.5" y="322.25" as="targetPoint" />
            <Array as="points" />
          </mxGeometry>
        </mxCell>
        <mxCell id="KAlw1xMLLrrgvb6lXqrv-312" value="0" style="rounded=0;orthogonalLoop=1;jettySize=auto;html=1;exitX=0;exitY=1;exitDx=0;exitDy=0;fontSize=30;entryX=0.5;entryY=0;entryDx=0;entryDy=0;" edge="1" parent="1" source="KAlw1xMLLrrgvb6lXqrv-315" target="KAlw1xMLLrrgvb6lXqrv-331">
          <mxGeometry relative="1" as="geometry">
            <mxPoint x="2165.5" y="402.25" as="targetPoint" />
          </mxGeometry>
        </mxCell>
        <mxCell id="KAlw1xMLLrrgvb6lXqrv-313" value="1" style="rounded=0;orthogonalLoop=1;jettySize=auto;html=1;exitX=1;exitY=1;exitDx=0;exitDy=0;entryX=0.5;entryY=0;entryDx=0;entryDy=0;fontSize=30;" edge="1" parent="1" source="KAlw1xMLLrrgvb6lXqrv-315" target="KAlw1xMLLrrgvb6lXqrv-318">
          <mxGeometry relative="1" as="geometry" />
        </mxCell>
        <mxCell id="KAlw1xMLLrrgvb6lXqrv-315" value="" style="ellipse;whiteSpace=wrap;html=1;aspect=fixed;fontSize=30;" vertex="1" parent="1">
          <mxGeometry x="2215.5" y="322.25" width="40" height="40" as="geometry" />
        </mxCell>
        <mxCell id="KAlw1xMLLrrgvb6lXqrv-316" value="0" style="rounded=0;orthogonalLoop=1;jettySize=auto;html=1;exitX=0;exitY=1;exitDx=0;exitDy=0;entryX=0.5;entryY=0;entryDx=0;entryDy=0;fontSize=30;" edge="1" parent="1" source="KAlw1xMLLrrgvb6lXqrv-318" target="KAlw1xMLLrrgvb6lXqrv-326">
          <mxGeometry relative="1" as="geometry" />
        </mxCell>
        <mxCell id="KAlw1xMLLrrgvb6lXqrv-317" value="1" style="rounded=0;orthogonalLoop=1;jettySize=auto;html=1;exitX=1;exitY=1;exitDx=0;exitDy=0;entryX=0.5;entryY=0;entryDx=0;entryDy=0;fontSize=30;" edge="1" parent="1" source="KAlw1xMLLrrgvb6lXqrv-318" target="KAlw1xMLLrrgvb6lXqrv-321">
          <mxGeometry relative="1" as="geometry" />
        </mxCell>
        <mxCell id="KAlw1xMLLrrgvb6lXqrv-318" value="" style="ellipse;whiteSpace=wrap;html=1;aspect=fixed;fontSize=30;" vertex="1" parent="1">
          <mxGeometry x="2312.5" y="402.25" width="40" height="40" as="geometry" />
        </mxCell>
        <mxCell id="KAlw1xMLLrrgvb6lXqrv-319" value="0" style="rounded=0;orthogonalLoop=1;jettySize=auto;html=1;exitX=0;exitY=1;exitDx=0;exitDy=0;entryX=0.5;entryY=0;entryDx=0;entryDy=0;fontSize=25;" edge="1" parent="1" source="KAlw1xMLLrrgvb6lXqrv-321" target="KAlw1xMLLrrgvb6lXqrv-322">
          <mxGeometry relative="1" as="geometry" />
        </mxCell>
        <mxCell id="KAlw1xMLLrrgvb6lXqrv-320" value="1" style="rounded=0;orthogonalLoop=1;jettySize=auto;html=1;exitX=1;exitY=1;exitDx=0;exitDy=0;entryX=0.5;entryY=0;entryDx=0;entryDy=0;fontSize=25;" edge="1" parent="1" source="KAlw1xMLLrrgvb6lXqrv-321" target="KAlw1xMLLrrgvb6lXqrv-323">
          <mxGeometry relative="1" as="geometry" />
        </mxCell>
        <mxCell id="KAlw1xMLLrrgvb6lXqrv-321" value="" style="ellipse;whiteSpace=wrap;html=1;aspect=fixed;fontSize=30;" vertex="1" parent="1">
          <mxGeometry x="2365.5" y="482.25" width="40" height="40" as="geometry" />
        </mxCell>
        <mxCell id="KAlw1xMLLrrgvb6lXqrv-322" value="" style="ellipse;whiteSpace=wrap;html=1;aspect=fixed;fontSize=30;fillColor=#dae8fc;strokeColor=#6c8ebf;" vertex="1" parent="1">
          <mxGeometry x="2345.5" y="570" width="30" height="30" as="geometry" />
        </mxCell>
        <mxCell id="KAlw1xMLLrrgvb6lXqrv-323" value="" style="ellipse;whiteSpace=wrap;html=1;aspect=fixed;fontSize=30;fillColor=#dae8fc;strokeColor=#6c8ebf;" vertex="1" parent="1">
          <mxGeometry x="2395.5" y="570" width="30" height="30" as="geometry" />
        </mxCell>
        <mxCell id="KAlw1xMLLrrgvb6lXqrv-324" value="0" style="rounded=0;orthogonalLoop=1;jettySize=auto;html=1;exitX=0;exitY=1;exitDx=0;exitDy=0;entryX=0.5;entryY=0;entryDx=0;entryDy=0;fontSize=25;" edge="1" parent="1" source="KAlw1xMLLrrgvb6lXqrv-326" target="KAlw1xMLLrrgvb6lXqrv-327">
          <mxGeometry relative="1" as="geometry" />
        </mxCell>
        <mxCell id="KAlw1xMLLrrgvb6lXqrv-325" value="1" style="rounded=0;orthogonalLoop=1;jettySize=auto;html=1;exitX=1;exitY=1;exitDx=0;exitDy=0;entryX=0.5;entryY=0;entryDx=0;entryDy=0;fontSize=25;" edge="1" parent="1" source="KAlw1xMLLrrgvb6lXqrv-326" target="KAlw1xMLLrrgvb6lXqrv-328">
          <mxGeometry relative="1" as="geometry" />
        </mxCell>
        <mxCell id="KAlw1xMLLrrgvb6lXqrv-326" value="" style="ellipse;whiteSpace=wrap;html=1;aspect=fixed;fontSize=30;" vertex="1" parent="1">
          <mxGeometry x="2262.5" y="482.25" width="40" height="40" as="geometry" />
        </mxCell>
        <mxCell id="KAlw1xMLLrrgvb6lXqrv-327" value="" style="ellipse;whiteSpace=wrap;html=1;aspect=fixed;fontSize=30;fillColor=#dae8fc;strokeColor=#6c8ebf;" vertex="1" parent="1">
          <mxGeometry x="2242.5" y="570" width="30" height="30" as="geometry" />
        </mxCell>
        <mxCell id="KAlw1xMLLrrgvb6lXqrv-328" value="" style="ellipse;whiteSpace=wrap;html=1;aspect=fixed;fontSize=30;fillColor=#dae8fc;strokeColor=#6c8ebf;" vertex="1" parent="1">
          <mxGeometry x="2292.5" y="570" width="30" height="30" as="geometry" />
        </mxCell>
        <mxCell id="KAlw1xMLLrrgvb6lXqrv-329" value="0" style="rounded=0;orthogonalLoop=1;jettySize=auto;html=1;exitX=0;exitY=1;exitDx=0;exitDy=0;entryX=0.5;entryY=0;entryDx=0;entryDy=0;fontSize=30;" edge="1" parent="1" source="KAlw1xMLLrrgvb6lXqrv-331" target="KAlw1xMLLrrgvb6lXqrv-339">
          <mxGeometry relative="1" as="geometry" />
        </mxCell>
        <mxCell id="KAlw1xMLLrrgvb6lXqrv-330" value="1" style="rounded=0;orthogonalLoop=1;jettySize=auto;html=1;exitX=1;exitY=1;exitDx=0;exitDy=0;entryX=0.5;entryY=0;entryDx=0;entryDy=0;fontSize=30;" edge="1" parent="1" source="KAlw1xMLLrrgvb6lXqrv-331" target="KAlw1xMLLrrgvb6lXqrv-334">
          <mxGeometry relative="1" as="geometry" />
        </mxCell>
        <mxCell id="KAlw1xMLLrrgvb6lXqrv-331" value="" style="ellipse;whiteSpace=wrap;html=1;aspect=fixed;fontSize=30;" vertex="1" parent="1">
          <mxGeometry x="2115.5" y="403.75" width="40" height="40" as="geometry" />
        </mxCell>
        <mxCell id="KAlw1xMLLrrgvb6lXqrv-332" value="0" style="rounded=0;orthogonalLoop=1;jettySize=auto;html=1;exitX=0;exitY=1;exitDx=0;exitDy=0;entryX=0.5;entryY=0;entryDx=0;entryDy=0;fontSize=25;" edge="1" parent="1" source="KAlw1xMLLrrgvb6lXqrv-334" target="KAlw1xMLLrrgvb6lXqrv-335">
          <mxGeometry relative="1" as="geometry" />
        </mxCell>
        <mxCell id="KAlw1xMLLrrgvb6lXqrv-333" value="1" style="rounded=0;orthogonalLoop=1;jettySize=auto;html=1;exitX=1;exitY=1;exitDx=0;exitDy=0;entryX=0.5;entryY=0;entryDx=0;entryDy=0;fontSize=25;" edge="1" parent="1" source="KAlw1xMLLrrgvb6lXqrv-334" target="KAlw1xMLLrrgvb6lXqrv-336">
          <mxGeometry relative="1" as="geometry" />
        </mxCell>
        <mxCell id="KAlw1xMLLrrgvb6lXqrv-334" value="" style="ellipse;whiteSpace=wrap;html=1;aspect=fixed;fontSize=30;" vertex="1" parent="1">
          <mxGeometry x="2168.5" y="483.75" width="40" height="40" as="geometry" />
        </mxCell>
        <mxCell id="KAlw1xMLLrrgvb6lXqrv-335" value="" style="ellipse;whiteSpace=wrap;html=1;aspect=fixed;fontSize=30;fillColor=#dae8fc;strokeColor=#6c8ebf;" vertex="1" parent="1">
          <mxGeometry x="2148.5" y="570" width="30" height="30" as="geometry" />
        </mxCell>
        <mxCell id="KAlw1xMLLrrgvb6lXqrv-336" value="" style="ellipse;whiteSpace=wrap;html=1;aspect=fixed;fontSize=30;fillColor=#dae8fc;strokeColor=#6c8ebf;" vertex="1" parent="1">
          <mxGeometry x="2198.5" y="570" width="30" height="30" as="geometry" />
        </mxCell>
        <mxCell id="KAlw1xMLLrrgvb6lXqrv-337" value="0" style="rounded=0;orthogonalLoop=1;jettySize=auto;html=1;exitX=0;exitY=1;exitDx=0;exitDy=0;entryX=0.5;entryY=0;entryDx=0;entryDy=0;fontSize=25;" edge="1" parent="1" source="KAlw1xMLLrrgvb6lXqrv-339" target="KAlw1xMLLrrgvb6lXqrv-340">
          <mxGeometry relative="1" as="geometry" />
        </mxCell>
        <mxCell id="KAlw1xMLLrrgvb6lXqrv-338" value="1" style="rounded=0;orthogonalLoop=1;jettySize=auto;html=1;exitX=1;exitY=1;exitDx=0;exitDy=0;entryX=0.5;entryY=0;entryDx=0;entryDy=0;fontSize=25;" edge="1" parent="1" source="KAlw1xMLLrrgvb6lXqrv-339" target="KAlw1xMLLrrgvb6lXqrv-341">
          <mxGeometry relative="1" as="geometry" />
        </mxCell>
        <mxCell id="KAlw1xMLLrrgvb6lXqrv-339" value="" style="ellipse;whiteSpace=wrap;html=1;aspect=fixed;fontSize=30;" vertex="1" parent="1">
          <mxGeometry x="2065.5" y="483.75" width="40" height="40" as="geometry" />
        </mxCell>
        <mxCell id="KAlw1xMLLrrgvb6lXqrv-340" value="" style="ellipse;whiteSpace=wrap;html=1;aspect=fixed;fontSize=30;fillColor=#dae8fc;strokeColor=#6c8ebf;" vertex="1" parent="1">
          <mxGeometry x="2045.5" y="570" width="30" height="30" as="geometry" />
        </mxCell>
        <mxCell id="KAlw1xMLLrrgvb6lXqrv-341" value="" style="ellipse;whiteSpace=wrap;html=1;aspect=fixed;fontSize=30;fillColor=#dae8fc;strokeColor=#6c8ebf;" vertex="1" parent="1">
          <mxGeometry x="2095.5" y="570" width="30" height="30" as="geometry" />
        </mxCell>
        <mxCell id="KAlw1xMLLrrgvb6lXqrv-342" value="0" style="rounded=0;orthogonalLoop=1;jettySize=auto;html=1;exitX=0;exitY=1;exitDx=0;exitDy=0;fontSize=30;entryX=0.5;entryY=0;entryDx=0;entryDy=0;" edge="1" parent="1" source="KAlw1xMLLrrgvb6lXqrv-345" target="KAlw1xMLLrrgvb6lXqrv-361">
          <mxGeometry relative="1" as="geometry">
            <mxPoint x="1768.5" y="402.25" as="targetPoint" />
          </mxGeometry>
        </mxCell>
        <mxCell id="KAlw1xMLLrrgvb6lXqrv-343" value="1" style="rounded=0;orthogonalLoop=1;jettySize=auto;html=1;exitX=1;exitY=1;exitDx=0;exitDy=0;entryX=0.5;entryY=0;entryDx=0;entryDy=0;fontSize=30;" edge="1" parent="1" source="KAlw1xMLLrrgvb6lXqrv-345" target="KAlw1xMLLrrgvb6lXqrv-348">
          <mxGeometry relative="1" as="geometry" />
        </mxCell>
        <mxCell id="KAlw1xMLLrrgvb6lXqrv-345" value="" style="ellipse;whiteSpace=wrap;html=1;aspect=fixed;fontSize=30;" vertex="1" parent="1">
          <mxGeometry x="1818.5" y="322.25" width="40" height="40" as="geometry" />
        </mxCell>
        <mxCell id="KAlw1xMLLrrgvb6lXqrv-346" value="0" style="rounded=0;orthogonalLoop=1;jettySize=auto;html=1;exitX=0;exitY=1;exitDx=0;exitDy=0;entryX=0.5;entryY=0;entryDx=0;entryDy=0;fontSize=30;" edge="1" parent="1" source="KAlw1xMLLrrgvb6lXqrv-348" target="KAlw1xMLLrrgvb6lXqrv-356">
          <mxGeometry relative="1" as="geometry" />
        </mxCell>
        <mxCell id="KAlw1xMLLrrgvb6lXqrv-347" value="1" style="rounded=0;orthogonalLoop=1;jettySize=auto;html=1;exitX=1;exitY=1;exitDx=0;exitDy=0;entryX=0.5;entryY=0;entryDx=0;entryDy=0;fontSize=30;" edge="1" parent="1" source="KAlw1xMLLrrgvb6lXqrv-348" target="KAlw1xMLLrrgvb6lXqrv-351">
          <mxGeometry relative="1" as="geometry" />
        </mxCell>
        <mxCell id="KAlw1xMLLrrgvb6lXqrv-348" value="" style="ellipse;whiteSpace=wrap;html=1;aspect=fixed;fontSize=30;" vertex="1" parent="1">
          <mxGeometry x="1915.5" y="402.25" width="40" height="40" as="geometry" />
        </mxCell>
        <mxCell id="KAlw1xMLLrrgvb6lXqrv-349" value="0" style="rounded=0;orthogonalLoop=1;jettySize=auto;html=1;exitX=0;exitY=1;exitDx=0;exitDy=0;entryX=0.5;entryY=0;entryDx=0;entryDy=0;fontSize=25;" edge="1" parent="1" source="KAlw1xMLLrrgvb6lXqrv-351" target="KAlw1xMLLrrgvb6lXqrv-352">
          <mxGeometry relative="1" as="geometry" />
        </mxCell>
        <mxCell id="KAlw1xMLLrrgvb6lXqrv-350" value="1" style="rounded=0;orthogonalLoop=1;jettySize=auto;html=1;exitX=1;exitY=1;exitDx=0;exitDy=0;entryX=0.5;entryY=0;entryDx=0;entryDy=0;fontSize=25;" edge="1" parent="1" source="KAlw1xMLLrrgvb6lXqrv-351" target="KAlw1xMLLrrgvb6lXqrv-353">
          <mxGeometry relative="1" as="geometry" />
        </mxCell>
        <mxCell id="KAlw1xMLLrrgvb6lXqrv-351" value="" style="ellipse;whiteSpace=wrap;html=1;aspect=fixed;fontSize=30;" vertex="1" parent="1">
          <mxGeometry x="1968.5" y="482.25" width="40" height="40" as="geometry" />
        </mxCell>
        <mxCell id="KAlw1xMLLrrgvb6lXqrv-352" value="" style="ellipse;whiteSpace=wrap;html=1;aspect=fixed;fontSize=30;fillColor=#dae8fc;strokeColor=#6c8ebf;" vertex="1" parent="1">
          <mxGeometry x="1948.5" y="570" width="30" height="30" as="geometry" />
        </mxCell>
        <mxCell id="KAlw1xMLLrrgvb6lXqrv-353" value="" style="ellipse;whiteSpace=wrap;html=1;aspect=fixed;fontSize=30;fillColor=#dae8fc;strokeColor=#6c8ebf;" vertex="1" parent="1">
          <mxGeometry x="1998.5" y="570" width="30" height="30" as="geometry" />
        </mxCell>
        <mxCell id="KAlw1xMLLrrgvb6lXqrv-354" value="0" style="rounded=0;orthogonalLoop=1;jettySize=auto;html=1;exitX=0;exitY=1;exitDx=0;exitDy=0;entryX=0.5;entryY=0;entryDx=0;entryDy=0;fontSize=25;" edge="1" parent="1" source="KAlw1xMLLrrgvb6lXqrv-356" target="KAlw1xMLLrrgvb6lXqrv-357">
          <mxGeometry relative="1" as="geometry" />
        </mxCell>
        <mxCell id="KAlw1xMLLrrgvb6lXqrv-355" value="1" style="rounded=0;orthogonalLoop=1;jettySize=auto;html=1;exitX=1;exitY=1;exitDx=0;exitDy=0;entryX=0.5;entryY=0;entryDx=0;entryDy=0;fontSize=25;" edge="1" parent="1" source="KAlw1xMLLrrgvb6lXqrv-356" target="KAlw1xMLLrrgvb6lXqrv-358">
          <mxGeometry relative="1" as="geometry" />
        </mxCell>
        <mxCell id="KAlw1xMLLrrgvb6lXqrv-356" value="" style="ellipse;whiteSpace=wrap;html=1;aspect=fixed;fontSize=30;" vertex="1" parent="1">
          <mxGeometry x="1865.5" y="482.25" width="40" height="40" as="geometry" />
        </mxCell>
        <mxCell id="KAlw1xMLLrrgvb6lXqrv-357" value="&lt;font style=&quot;font-size: 10px;&quot;&gt;110100&lt;/font&gt;" style="ellipse;whiteSpace=wrap;html=1;aspect=fixed;fontSize=30;fillColor=#ffe6cc;strokeColor=#d79b00;" vertex="1" parent="1">
          <mxGeometry x="1842" y="566" width="44" height="44" as="geometry" />
        </mxCell>
        <mxCell id="KAlw1xMLLrrgvb6lXqrv-358" value="" style="ellipse;whiteSpace=wrap;html=1;aspect=fixed;fontSize=30;fillColor=#dae8fc;strokeColor=#6c8ebf;" vertex="1" parent="1">
          <mxGeometry x="1895.5" y="570" width="30" height="30" as="geometry" />
        </mxCell>
        <mxCell id="KAlw1xMLLrrgvb6lXqrv-359" value="0" style="rounded=0;orthogonalLoop=1;jettySize=auto;html=1;exitX=0;exitY=1;exitDx=0;exitDy=0;entryX=0.5;entryY=0;entryDx=0;entryDy=0;fontSize=30;dashed=1;" edge="1" parent="1" source="KAlw1xMLLrrgvb6lXqrv-361" target="KAlw1xMLLrrgvb6lXqrv-369">
          <mxGeometry relative="1" as="geometry" />
        </mxCell>
        <mxCell id="KAlw1xMLLrrgvb6lXqrv-360" value="1" style="rounded=0;orthogonalLoop=1;jettySize=auto;html=1;exitX=1;exitY=1;exitDx=0;exitDy=0;entryX=0.5;entryY=0;entryDx=0;entryDy=0;fontSize=30;dashed=1;" edge="1" parent="1" source="KAlw1xMLLrrgvb6lXqrv-361" target="KAlw1xMLLrrgvb6lXqrv-364">
          <mxGeometry relative="1" as="geometry" />
        </mxCell>
        <mxCell id="KAlw1xMLLrrgvb6lXqrv-361" value="&lt;font style=&quot;font-size: 15px;&quot;&gt;1100&lt;/font&gt;" style="ellipse;whiteSpace=wrap;html=1;aspect=fixed;fontSize=30;fillColor=#ffe6cc;strokeColor=#d79b00;" vertex="1" parent="1">
          <mxGeometry x="1718.5" y="403.75" width="40" height="40" as="geometry" />
        </mxCell>
        <mxCell id="KAlw1xMLLrrgvb6lXqrv-362" value="0" style="rounded=0;orthogonalLoop=1;jettySize=auto;html=1;exitX=0;exitY=1;exitDx=0;exitDy=0;entryX=0.5;entryY=0;entryDx=0;entryDy=0;fontSize=25;dashed=1;" edge="1" parent="1" source="KAlw1xMLLrrgvb6lXqrv-364" target="KAlw1xMLLrrgvb6lXqrv-365">
          <mxGeometry relative="1" as="geometry" />
        </mxCell>
        <mxCell id="KAlw1xMLLrrgvb6lXqrv-363" value="1" style="rounded=0;orthogonalLoop=1;jettySize=auto;html=1;exitX=1;exitY=1;exitDx=0;exitDy=0;entryX=0.5;entryY=0;entryDx=0;entryDy=0;fontSize=25;dashed=1;" edge="1" parent="1" source="KAlw1xMLLrrgvb6lXqrv-364" target="KAlw1xMLLrrgvb6lXqrv-366">
          <mxGeometry relative="1" as="geometry" />
        </mxCell>
        <mxCell id="KAlw1xMLLrrgvb6lXqrv-364" value="" style="ellipse;whiteSpace=wrap;html=1;aspect=fixed;fontSize=30;dashed=1;" vertex="1" parent="1">
          <mxGeometry x="1771.5" y="483.75" width="40" height="40" as="geometry" />
        </mxCell>
        <mxCell id="KAlw1xMLLrrgvb6lXqrv-365" value="" style="ellipse;whiteSpace=wrap;html=1;aspect=fixed;fontSize=30;dashed=1;" vertex="1" parent="1">
          <mxGeometry x="1751.5" y="570" width="30" height="30" as="geometry" />
        </mxCell>
        <mxCell id="KAlw1xMLLrrgvb6lXqrv-366" value="" style="ellipse;whiteSpace=wrap;html=1;aspect=fixed;fontSize=30;dashed=1;" vertex="1" parent="1">
          <mxGeometry x="1801.5" y="570" width="30" height="30" as="geometry" />
        </mxCell>
        <mxCell id="KAlw1xMLLrrgvb6lXqrv-367" value="0" style="rounded=0;orthogonalLoop=1;jettySize=auto;html=1;exitX=0;exitY=1;exitDx=0;exitDy=0;entryX=0.5;entryY=0;entryDx=0;entryDy=0;fontSize=25;dashed=1;" edge="1" parent="1" source="KAlw1xMLLrrgvb6lXqrv-369" target="KAlw1xMLLrrgvb6lXqrv-370">
          <mxGeometry relative="1" as="geometry" />
        </mxCell>
        <mxCell id="KAlw1xMLLrrgvb6lXqrv-368" value="1" style="rounded=0;orthogonalLoop=1;jettySize=auto;html=1;exitX=1;exitY=1;exitDx=0;exitDy=0;entryX=0.5;entryY=0;entryDx=0;entryDy=0;fontSize=25;dashed=1;" edge="1" parent="1" source="KAlw1xMLLrrgvb6lXqrv-369" target="KAlw1xMLLrrgvb6lXqrv-371">
          <mxGeometry relative="1" as="geometry" />
        </mxCell>
        <mxCell id="KAlw1xMLLrrgvb6lXqrv-369" value="" style="ellipse;whiteSpace=wrap;html=1;aspect=fixed;fontSize=30;dashed=1;" vertex="1" parent="1">
          <mxGeometry x="1668.5" y="483.75" width="40" height="40" as="geometry" />
        </mxCell>
        <mxCell id="KAlw1xMLLrrgvb6lXqrv-370" value="" style="ellipse;whiteSpace=wrap;html=1;aspect=fixed;fontSize=30;dashed=1;" vertex="1" parent="1">
          <mxGeometry x="1648.5" y="570" width="30" height="30" as="geometry" />
        </mxCell>
        <mxCell id="KAlw1xMLLrrgvb6lXqrv-371" value="" style="ellipse;whiteSpace=wrap;html=1;aspect=fixed;fontSize=30;dashed=1;" vertex="1" parent="1">
          <mxGeometry x="1698.5" y="570" width="30" height="30" as="geometry" />
        </mxCell>
        <mxCell id="KAlw1xMLLrrgvb6lXqrv-372" value="" style="ellipse;whiteSpace=wrap;html=1;aspect=fixed;fontSize=30;" vertex="1" parent="1">
          <mxGeometry x="-720" width="40" height="40" as="geometry" />
        </mxCell>
        <mxCell id="KAlw1xMLLrrgvb6lXqrv-373" value="" style="ellipse;whiteSpace=wrap;html=1;aspect=fixed;fontSize=30;fillColor=#dae8fc;strokeColor=#6c8ebf;" vertex="1" parent="1">
          <mxGeometry x="-720" y="100" width="40" height="40" as="geometry" />
        </mxCell>
        <mxCell id="KAlw1xMLLrrgvb6lXqrv-374" value="&lt;font style=&quot;font-size: 24px;&quot;&gt;&amp;nbsp;- узел дерева используется&lt;/font&gt;" style="text;html=1;strokeColor=none;fillColor=none;align=left;verticalAlign=middle;whiteSpace=wrap;rounded=0;" vertex="1" parent="1">
          <mxGeometry x="-680" width="360" height="40" as="geometry" />
        </mxCell>
        <mxCell id="KAlw1xMLLrrgvb6lXqrv-375" value="&lt;font style=&quot;font-size: 24px;&quot;&gt;&amp;nbsp;- лист дерева не используется&lt;/font&gt;" style="text;html=1;strokeColor=none;fillColor=none;align=left;verticalAlign=middle;whiteSpace=wrap;rounded=0;" vertex="1" parent="1">
          <mxGeometry x="-680" y="100" width="360" height="40" as="geometry" />
        </mxCell>
        <mxCell id="KAlw1xMLLrrgvb6lXqrv-377" value="&lt;font style=&quot;font-size: 20px;&quot;&gt;абв&lt;/font&gt;" style="ellipse;whiteSpace=wrap;html=1;aspect=fixed;fontSize=30;fillColor=#ffe6cc;strokeColor=#d79b00;" vertex="1" parent="1">
          <mxGeometry x="-720" y="50" width="40" height="40" as="geometry" />
        </mxCell>
        <mxCell id="KAlw1xMLLrrgvb6lXqrv-378" value="" style="ellipse;whiteSpace=wrap;html=1;aspect=fixed;fontSize=30;dashed=1;" vertex="1" parent="1">
          <mxGeometry x="-720" y="150" width="40" height="40" as="geometry" />
        </mxCell>
        <mxCell id="KAlw1xMLLrrgvb6lXqrv-379" value="&lt;font style=&quot;font-size: 24px;&quot;&gt;&amp;nbsp;- узел дерева &lt;/font&gt;&lt;font style=&quot;font-size: 24px;&quot;&gt;используется, код - абв&lt;/font&gt;" style="text;html=1;strokeColor=none;fillColor=none;align=left;verticalAlign=middle;whiteSpace=wrap;rounded=0;" vertex="1" parent="1">
          <mxGeometry x="-680" y="50" width="447" height="40" as="geometry" />
        </mxCell>
        <mxCell id="KAlw1xMLLrrgvb6lXqrv-380" value="&lt;div&gt;&lt;font style=&quot;font-size: 24px;&quot;&gt;&amp;nbsp;- родитель узла используется&lt;/font&gt;&lt;/div&gt;" style="text;html=1;strokeColor=none;fillColor=none;align=left;verticalAlign=middle;whiteSpace=wrap;rounded=0;" vertex="1" parent="1">
          <mxGeometry x="-680" y="150" width="360" height="40" as="geometry" />
        </mxCell>
      </root>
    </mxGraphModel>
  </diagram>
</mxfile>
